<svg width="183" height="233" viewBox="0 0 183 233" fill="none" xmlns="http://www.w3.org/2000/svg">
<g clip-path="url(#clip0_0_880)">
<rect width="182.517" height="233" fill="#FF896F"/>
<rect width="182.517" height="233" fill="#FFD5CC"/>
<g filter="url(#filter0_d_0_880)">
<path fill-rule="evenodd" clip-rule="evenodd" d="M182.517 0H0V233H182.517V0ZM25.0806 9.70825C15.4294 9.70825 7.60557 17.5321 7.60557 27.1832V205.817C7.60557 215.468 15.4294 223.292 25.0806 223.292H157.438C167.089 223.292 174.913 215.468 174.913 205.817V27.1832C174.913 17.5321 167.089 9.70825 157.438 9.70825H25.0806Z" fill="white"/>
</g>
<g filter="url(#filter1_d_0_880)">
<path d="M133.475 109.68C133.842 125.376 125.885 148.84 105.578 158.41C100.474 160.815 97.6382 158.481 91.4829 158.778C85.9831 159.043 84.2841 160.983 79.046 159.107C57.2943 151.319 47.6361 128.507 47.2433 111.694C46.7297 89.7137 64.7098 78.1019 89.9331 92.4456C112.82 77.8075 132.962 87.699 133.475 109.68Z" fill="#FF542F"/>
<path fill-rule="evenodd" clip-rule="evenodd" d="M89.8272 88.1369C77.3496 81.5761 65.9058 80.7204 57.247 85.1248C48.0443 89.8058 43.2356 99.783 43.516 111.782C43.9311 129.547 54.0995 154.136 77.7899 162.618C81.0633 163.79 83.4398 163.8 85.7582 163.428C86.5544 163.3 87.2044 163.165 87.8158 163.039C88.9878 162.796 90.0179 162.582 91.6633 162.503C93.619 162.409 95.0273 162.611 96.6281 162.84C97.2129 162.924 97.8234 163.011 98.4957 163.089C101.036 163.384 103.782 163.379 107.169 161.783C129.271 151.368 137.592 126.176 137.204 109.593C136.92 97.4262 131.108 87.9685 121.557 83.9C112.619 80.0933 101.31 81.3876 89.8272 88.1369ZM105.579 158.41C125.886 148.84 133.843 125.376 133.476 109.68C132.963 87.6993 112.821 77.8078 89.934 92.4458C64.7106 78.1022 46.7306 89.714 47.2441 111.695C47.6369 128.508 57.2952 151.32 79.0469 159.108C82.4478 160.325 84.3568 159.935 86.7828 159.438C88.0934 159.17 89.5548 158.871 91.4838 158.778C93.8244 158.665 95.6851 158.933 97.373 159.176C100.124 159.571 102.416 159.901 105.579 158.41Z" fill="white"/>
<path fill-rule="evenodd" clip-rule="evenodd" d="M97.2858 148.457C117.593 138.887 123.891 115.423 123.524 99.7268C123.417 95.1303 122.451 91.0624 120.782 87.637C128.352 91.1859 133.228 99.0079 133.477 109.679C133.844 125.375 125.886 148.84 105.58 158.41C102.417 159.9 100.125 159.571 97.3737 159.175C95.6858 158.932 93.8251 158.665 91.4844 158.778C89.5555 158.871 88.094 159.17 86.7835 159.438C84.3575 159.934 82.4485 160.325 79.0476 159.107C71.0918 156.259 64.7538 151.4 59.8953 145.561C62.2011 146.967 64.7107 148.179 67.4363 149.154C70.944 150.41 73.6086 149.955 76.6379 149.438C78.1321 149.183 79.7151 148.913 81.5319 148.825C83.8128 148.715 85.8658 148.966 87.8062 149.204C91.1021 149.607 94.0734 149.971 97.2858 148.457Z" fill="#ED4A27"/>
<path d="M121.1 105.553C120.846 107.368 119.17 108.634 117.356 108.381C115.541 108.128 114.275 106.451 114.528 104.637C114.781 102.822 116.458 101.556 118.272 101.809C120.087 102.062 121.353 103.739 121.1 105.553Z" fill="#C53622"/>
<path d="M130.078 115.158C129.825 116.973 128.149 118.238 126.334 117.985C124.52 117.732 123.254 116.056 123.507 114.241C123.76 112.427 125.436 111.161 127.251 111.414C129.066 111.667 130.332 113.343 130.078 115.158Z" fill="#C53622"/>
<path d="M129.887 102.592C129.697 103.953 128.44 104.902 127.079 104.713C125.718 104.523 124.769 103.266 124.959 101.905C125.149 100.544 126.406 99.5942 127.767 99.7841C129.128 99.9739 130.077 101.231 129.887 102.592Z" fill="#C53622"/>
<path d="M126.816 126.696C126.563 128.511 124.886 129.777 123.072 129.524C121.257 129.271 119.991 127.594 120.244 125.78C120.497 123.965 122.174 122.699 123.988 122.952C125.803 123.205 127.069 124.882 126.816 126.696Z" fill="#C53622"/>
<path d="M117.837 117.092C117.584 118.906 115.908 120.172 114.093 119.919C112.278 119.666 111.012 117.99 111.266 116.175C111.519 114.36 113.195 113.095 115.01 113.348C116.824 113.601 118.09 115.277 117.837 117.092Z" fill="#C53622"/>
<path d="M121.341 139.274C121.087 141.088 119.411 142.354 117.597 142.101C115.782 141.848 114.516 140.172 114.769 138.357C115.022 136.542 116.699 135.277 118.513 135.53C120.328 135.783 121.594 137.459 121.341 139.274Z" fill="#C53622"/>
<path d="M114.676 129.217C114.422 131.032 112.746 132.297 110.931 132.044C109.117 131.791 107.851 130.115 108.104 128.3C108.357 126.486 110.034 125.22 111.848 125.473C113.663 125.726 114.929 127.402 114.676 129.217Z" fill="#C53622"/>
<path d="M114.764 146.638C114.574 147.999 113.317 148.948 111.956 148.758C110.595 148.568 109.646 147.311 109.836 145.95C110.026 144.589 111.283 143.64 112.644 143.83C114.005 144.019 114.954 145.277 114.764 146.638Z" fill="#C53622"/>
<path d="M108.544 58.487C108.544 58.487 112.229 73.6837 108.349 81.9574C103.671 91.9294 89.5458 92.559 89.5458 92.559C89.5458 92.559 85.269 80.9018 90.9208 70.7656C95.2683 62.9685 108.544 58.487 108.544 58.487Z" fill="#7CD623"/>
<path fill-rule="evenodd" clip-rule="evenodd" d="M112.168 57.6082L108.544 58.4872L107.351 54.9539C108.342 54.6194 109.428 54.7163 110.344 55.2211C111.26 55.7258 111.922 56.5919 112.168 57.6082ZM105.039 59.8942C107.114 58.9699 108.544 58.4872 108.544 58.4872C108.544 58.4872 108.896 59.9388 109.268 62.1891C110.099 67.2196 111.03 76.241 108.349 81.9576C103.671 91.9296 89.546 92.5592 89.546 92.5592C89.546 92.5592 85.2691 80.902 90.9209 70.7658C93.8416 65.5277 100.792 61.786 105.039 59.8942ZM89.546 92.5592C86.045 93.8437 86.0445 93.8424 86.0441 93.8411L86.0407 93.8318L86.0348 93.8156L86.0186 93.7702C86.0059 93.7343 85.9894 93.6871 85.9696 93.6289C85.9299 93.5126 85.8769 93.3525 85.8142 93.1519C85.6887 92.7509 85.5236 92.1859 85.3481 91.4834C84.9981 90.0826 84.6005 88.1111 84.3988 85.7859C83.9991 81.178 84.3463 74.8995 87.6639 68.9497C90.3812 64.0764 95.5999 60.586 99.5848 58.4246C101.659 57.2996 103.578 56.4407 104.978 55.8624C105.681 55.5722 106.259 55.3502 106.668 55.1985C106.873 55.1226 107.036 55.064 107.152 55.0232C107.209 55.0028 107.255 54.9868 107.289 54.9752L107.33 54.9612L107.348 54.9551L107.351 54.9539C107.352 54.9536 107.351 54.9539 108.544 58.4872C112.168 57.6082 112.168 57.6075 112.168 57.6082L112.17 57.6162L112.173 57.6298L112.184 57.6733L112.219 57.8245C112.248 57.9531 112.29 58.1365 112.34 58.3694C112.44 58.8347 112.577 59.4991 112.727 60.3185C113.027 61.9528 113.385 64.227 113.616 66.7845C114.059 71.6896 114.12 78.4351 111.725 83.5412C108.763 89.8564 102.931 92.9809 98.3972 94.5274C96.0809 95.3174 93.9462 95.752 92.3928 95.9909C91.6121 96.1109 90.9674 96.1831 90.5067 96.2259C90.276 96.2473 90.0906 96.2614 89.9564 96.2704C89.8892 96.275 89.8348 96.2782 89.7939 96.2805L89.7426 96.2832L89.7247 96.2841L89.7177 96.2844L89.7147 96.2845C89.7133 96.2846 89.712 96.2847 89.546 92.5592ZM86.045 93.8437L89.546 92.5592L89.712 96.2847C88.0883 96.357 86.6048 95.3695 86.045 93.8437Z" fill="white"/>
<path d="M105.85 82.0142C109.333 75.7677 107.284 63.0633 107.284 63.0633C96.9308 73.819 94.3247 85.7694 93.7334 90.0847C93.7334 90.0847 102.367 88.2607 105.85 82.0142Z" fill="#6FC21C"/>
<path d="M70.0875 76.0447C73.6725 76.9013 85.5583 87.0147 88.8905 93.312C89.1685 93.8374 90.6024 93.0151 90.3664 92.555C88.4663 86.5569 82.4054 72.399 77.5316 68.1322C71.1117 67.997 69.8857 74.6956 70.0875 76.0447Z" fill="#943D31"/>
<path fill-rule="evenodd" clip-rule="evenodd" d="M69.221 79.6718C67.7412 79.3182 66.6246 78.1012 66.3995 76.5965C66.2492 75.5919 66.3968 74.3957 66.6278 73.3874C66.8843 72.2682 67.3454 70.9333 68.1195 69.6288C69.7406 66.8969 72.7881 64.3023 77.6102 64.4039C78.4867 64.4223 79.3286 64.7489 79.9881 65.3264C81.6087 66.7451 83.1279 68.7855 84.4743 70.9059C85.8538 73.0785 87.1941 75.5648 88.4133 78.0541C90.8003 82.9277 92.8339 88.042 93.8665 91.2563C94.6326 93.22 93.5366 94.8281 93.2 95.2539C92.6973 95.8899 92.0884 96.3157 91.6001 96.5806C91.1215 96.8404 90.3868 97.148 89.4996 97.2023C88.6488 97.2544 86.6513 97.0536 85.5944 95.0562C84.2556 92.526 80.8767 88.7893 77.1012 85.4207C75.2687 83.7857 73.4589 82.3411 71.9338 81.2756C71.17 80.7421 70.5152 80.33 69.9918 80.0423C69.5187 79.7823 69.2769 79.6932 69.2271 79.6749C69.2166 79.671 69.2146 79.6703 69.221 79.6718ZM90.3665 92.5551C90.3644 92.5482 90.3622 92.5414 90.36 92.5345C90.1074 91.7385 89.7821 90.8001 89.3964 89.7611C88.9066 88.4415 88.3195 86.9596 87.6605 85.4009C84.9203 78.9202 80.9364 71.1129 77.5317 68.1322C71.1118 67.997 69.8858 74.6956 70.0876 76.0447C72.6722 76.6623 79.5711 82.0911 84.4688 87.4326C85.5053 88.5629 86.4521 89.6894 87.2495 90.7655C87.8429 91.5663 88.3534 92.3392 88.7566 93.0651C88.8027 93.148 88.8474 93.2304 88.8906 93.3121C89.1686 93.8374 90.6025 93.0151 90.3665 92.5551ZM86.7789 93.579C86.8413 93.7981 86.9292 94.0247 87.0484 94.2569C86.9535 94.072 86.8743 93.8794 86.8115 93.6812C86.8008 93.6474 86.7899 93.6134 86.7789 93.579Z" fill="white"/>
<path d="M78.7733 68.2567C79.9446 69.5063 79.1286 72.1743 76.9507 74.2159C74.7727 76.2575 72.0576 76.8996 70.8863 75.6501C69.7149 74.4005 70.5309 71.7325 72.7089 69.6909C74.8868 67.6493 77.602 67.0072 78.7733 68.2567Z" fill="#C26649"/>
<path d="M72.2431 92.5669C77.1749 94.9941 78.2213 102.959 74.5805 110.356C70.9397 117.754 63.9903 121.783 59.0586 119.356C54.1269 116.929 53.0804 108.964 56.7212 101.567C60.362 94.169 67.3114 90.1397 72.2431 92.5669Z" fill="#FF896F"/>
<path fill-rule="evenodd" clip-rule="evenodd" d="M66.5338 98.5041C68.1154 99.8233 68.328 102.175 67.0088 103.756C66.1497 104.786 65.5876 105.873 65.2745 107.037C64.7395 109.026 62.6935 110.204 60.7046 109.669C58.7158 109.134 57.5372 107.088 58.0723 105.099C58.679 102.844 59.7647 100.797 61.2814 98.9791C62.6006 97.3975 64.9522 97.1848 66.5338 98.5041Z" fill="white"/>
</g>
</g>
<defs>
<filter id="filter0_d_0_880" x="-2.58889" y="-2.58889" width="188.989" height="239.472" filterUnits="userSpaceOnUse" color-interpolation-filters="sRGB">
<feFlood flood-opacity="0" result="BackgroundImageFix"/>
<feColorMatrix in="SourceAlpha" type="matrix" values="0 0 0 0 0 0 0 0 0 0 0 0 0 0 0 0 0 0 127 0" result="hardAlpha"/>
<feOffset dx="0.647222" dy="0.647222"/>
<feGaussianBlur stdDeviation="1.61806"/>
<feColorMatrix type="matrix" values="0 0 0 0 0 0 0 0 0 0 0 0 0 0 0 0 0 0 0.25 0"/>
<feBlend mode="overlay" in2="BackgroundImageFix" result="effect1_dropShadow_0_880"/>
<feBlend mode="normal" in="SourceGraphic" in2="effect1_dropShadow_0_880" result="shape"/>
</filter>
<filter id="filter1_d_0_880" x="37.9044" y="52.1579" width="122.913" height="138.087" filterUnits="userSpaceOnUse" color-interpolation-filters="sRGB">
<feFlood flood-opacity="0" result="BackgroundImageFix"/>
<feColorMatrix in="SourceAlpha" type="matrix" values="0 0 0 0 0 0 0 0 0 0 0 0 0 0 0 0 0 0 127 0" result="hardAlpha"/>
<feOffset dx="9" dy="12"/>
<feGaussianBlur stdDeviation="7.3"/>
<feComposite in2="hardAlpha" operator="out"/>
<feColorMatrix type="matrix" values="0 0 0 0 0.993115 0 0 0 0 0.743134 0 0 0 0 0.689567 0 0 0 1 0"/>
<feBlend mode="normal" in2="BackgroundImageFix" result="effect1_dropShadow_0_880"/>
<feBlend mode="normal" in="SourceGraphic" in2="effect1_dropShadow_0_880" result="shape"/>
</filter>
<clipPath id="clip0_0_880">
<rect width="182.517" height="233" fill="white"/>
</clipPath>
</defs>
</svg>
