<svg width="185" height="233" viewBox="0 0 185 233" fill="none" xmlns="http://www.w3.org/2000/svg">
<mask id="mask0_0_1" style="mask-type:luminance" maskUnits="userSpaceOnUse" x="2" y="0" width="183" height="233">
<path d="M184.52 0H2V233H184.52V0Z" fill="white"/>
</mask>
<g mask="url(#mask0_0_1)">
<g filter="url(#filter0_di_0_1)">
<path d="M184.52 0H2V233H184.52V0Z" fill="#FFEBCC"/>
<g filter="url(#filter1_d_0_1)">
<path fill-rule="evenodd" clip-rule="evenodd" d="M184.52 0H2V233H184.52V0ZM27.08 9.70824C17.4286 9.70824 9.60471 17.5321 9.60471 27.1832V205.817C9.60471 215.467 17.4286 223.292 27.08 223.292H159.44C169.091 223.292 176.915 215.467 176.915 205.817V27.1832C176.915 17.5321 169.091 9.70824 159.44 9.70824H27.08Z" fill="white"/>
</g>
</g>
</g>
<mask id="mask1_0_1" style="mask-type:luminance" maskUnits="userSpaceOnUse" x="0" y="24" width="185" height="185">
<path d="M185 24H0V209H185V24Z" fill="white"/>
</mask>
<g mask="url(#mask1_0_1)">
<g filter="url(#filter2_d_0_1)">
<path d="M134.896 139.625C134.896 165.168 114.189 185.875 88.646 185.875C63.103 185.875 42.396 165.168 42.396 139.625C42.396 114.082 63.103 93.375 88.646 93.375C114.189 93.375 134.896 114.082 134.896 139.625Z" fill="#FFAC2F"/>
<path fill-rule="evenodd" clip-rule="evenodd" d="M138.75 139.625C138.75 167.297 116.317 189.729 88.646 189.729C60.974 189.729 38.5415 167.297 38.5415 139.625C38.5415 111.953 60.974 89.521 88.646 89.521C116.317 89.521 138.75 111.953 138.75 139.625ZM88.646 185.875C114.189 185.875 134.896 165.168 134.896 139.625C134.896 114.082 114.189 93.375 88.646 93.375C63.102 93.375 42.3957 114.082 42.3957 139.625C42.3957 165.168 63.102 185.875 88.646 185.875Z" fill="white"/>
<path fill-rule="evenodd" clip-rule="evenodd" d="M88.646 185.875C114.189 185.875 134.896 165.168 134.896 139.625C134.896 114.082 114.189 93.375 88.646 93.375C86.809 93.375 84.998 93.482 83.217 93.69C100.655 96.018 114.106 110.951 114.106 129.026C114.106 148.716 98.144 164.677 78.455 164.677C59.897 164.677 44.6515 150.498 42.9597 132.383C42.5886 134.742 42.396 137.161 42.396 139.625C42.396 165.168 63.103 185.875 88.646 185.875Z" fill="#FF862F"/>
<path d="M117.966 127.787C117.966 129.84 116.302 131.504 114.249 131.504C112.197 131.504 110.533 129.84 110.533 127.787C110.533 125.735 112.197 124.071 114.249 124.071C116.302 124.071 117.966 125.735 117.966 127.787Z" fill="#DD7429"/>
<path d="M129.115 135.22C129.115 137.273 127.451 138.937 125.399 138.937C123.346 138.937 121.682 137.273 121.682 135.22C121.682 133.168 123.346 131.504 125.399 131.504C127.451 131.504 129.115 133.168 129.115 135.22Z" fill="#DD7429"/>
<path d="M127.257 123.142C127.257 124.681 126.009 125.929 124.47 125.929C122.93 125.929 121.682 124.681 121.682 123.142C121.682 121.602 122.93 120.354 124.47 120.354C126.009 120.354 127.257 121.602 127.257 123.142Z" fill="#DD7429"/>
<path d="M129.523 151.188C129.523 154.38 126.935 156.969 123.742 156.969C120.549 156.969 117.96 154.38 117.96 151.188C117.96 147.995 120.549 145.406 123.742 145.406C126.935 145.406 129.523 147.995 129.523 151.188Z" fill="#DD7429"/>
<path d="M117.966 140.795C117.966 142.848 116.302 144.512 114.249 144.512C112.197 144.512 110.533 142.848 110.533 140.795C110.533 138.742 112.197 137.078 114.249 137.078C116.302 137.078 117.966 138.742 117.966 140.795Z" fill="#DD7429"/>
<path d="M121.683 163.232C121.683 165.284 120.019 166.948 117.966 166.948C115.913 166.948 114.25 165.284 114.25 163.232C114.25 161.179 115.913 159.515 117.966 159.515C120.019 159.515 121.683 161.179 121.683 163.232Z" fill="#DD7429"/>
<path d="M111.904 170.321C111.904 172.373 110.24 174.037 108.187 174.037C106.135 174.037 104.471 172.373 104.471 170.321C104.471 168.268 106.135 166.604 108.187 166.604C110.24 166.604 111.904 168.268 111.904 170.321Z" fill="#DD7429"/>
<path d="M112.459 157.657C112.459 159.71 110.795 161.374 108.742 161.374C106.69 161.374 105.026 159.71 105.026 157.657C105.026 155.604 106.69 153.941 108.742 153.941C110.795 153.941 112.459 155.604 112.459 157.657Z" fill="#DD7429"/>
<path d="M98.832 175.379C98.832 176.919 97.584 178.167 96.045 178.167C94.505 178.167 93.257 176.919 93.257 175.379C93.257 173.84 94.505 172.592 96.045 172.592C97.584 172.592 98.832 173.84 98.832 175.379Z" fill="#DD7429"/>
<path d="M124.958 92.6379C124.958 92.6379 116.149 77.5899 107.195 77.1989C98.241 76.8069 90.628 84.5959 90.628 84.5959C90.628 84.5959 97.532 93.0199 106.486 93.4109C115.44 93.8029 124.958 92.6379 124.958 92.6379Z" fill="#64AC1D"/>
<path fill-rule="evenodd" clip-rule="evenodd" d="M128.284 90.6899L124.958 92.6369L125.426 96.4629C126.714 96.3049 127.836 95.5099 128.412 94.3469C128.988 93.1839 128.94 91.8099 128.284 90.6899ZM90.628 84.5949C87.871 81.9009 87.872 81.9009 87.873 81.8999L87.879 81.8929L87.89 81.8819L87.92 81.8519C87.944 81.8279 87.975 81.7969 88.014 81.7589C88.091 81.6829 88.197 81.5799 88.332 81.4539C88.6 81.2009 88.982 80.8539 89.464 80.4449C90.424 79.6309 91.804 78.5539 93.504 77.4859C96.828 75.3989 101.766 73.1029 107.363 73.3479C110.625 73.4909 113.567 74.9369 115.965 76.6229C118.394 78.3309 120.564 80.4949 122.34 82.5319C124.129 84.5849 125.603 86.6079 126.626 88.1089C127.14 88.8639 127.547 89.4949 127.828 89.9429C127.968 90.1679 128.078 90.3469 128.155 90.4739C128.193 90.5369 128.223 90.5879 128.245 90.6239L128.271 90.6679L128.279 90.6819L128.282 90.6869L128.284 90.6899C128.285 90.6909 128.284 90.6899 124.958 92.6369C125.426 96.4629 125.427 96.4629 125.426 96.4629L125.39 96.4669L125.298 96.4779C125.22 96.4869 125.106 96.5009 124.96 96.5169C124.669 96.5499 124.247 96.5949 123.714 96.6479C122.65 96.7549 121.141 96.8919 119.346 97.0159C115.773 97.2639 110.996 97.4659 106.317 97.2619C100.72 97.0169 96.001 94.2989 92.872 91.9289C91.272 90.7169 89.991 89.5229 89.106 88.6279C88.661 88.1789 88.312 87.7999 88.066 87.5249C87.943 87.3869 87.846 87.2749 87.776 87.1929C87.741 87.1509 87.712 87.1179 87.691 87.0919L87.663 87.0589L87.654 87.0469L87.648 87.0399C87.647 87.0389 87.647 87.0389 90.628 84.5949ZM90.628 84.5949L87.871 81.9009C86.498 83.3059 86.401 85.5189 87.647 87.0389L90.628 84.5949ZM122.556 89.0169C119.331 84.5379 113.297 77.4649 107.195 77.1979C98.241 76.8069 90.628 84.5949 90.628 84.5949C90.628 84.5949 97.532 93.0189 106.486 93.4109C111.676 93.6379 117.056 93.3419 120.662 93.0529C123.276 92.8429 124.958 92.6369 124.958 92.6369C124.958 92.6369 124.064 91.1099 122.556 89.0169Z" fill="white"/>
<path d="M135.989 57.3533C135.989 57.3533 125.403 76.004 114.105 81.96C102.807 87.915 88.257 82.515 88.257 82.515C88.257 82.515 92.024 67.459 103.321 61.5031C114.619 55.5475 135.989 57.3533 135.989 57.3533Z" fill="#87D623"/>
<path fill-rule="evenodd" clip-rule="evenodd" d="M139.341 59.2557L135.989 57.3532L136.314 53.5127C137.623 53.6234 138.786 54.3935 139.399 55.5559C140.011 56.7183 139.99 58.1129 139.341 59.2557ZM131.628 57.1378C134.303 57.2107 135.989 57.3532 135.989 57.3532C135.989 57.3532 135.154 58.8246 133.703 61.0728C129.986 66.8289 122.23 77.6769 114.105 81.9599C102.807 87.9149 88.257 82.5149 88.257 82.5149C88.257 82.5149 92.024 67.4589 103.322 61.503C111.446 57.2202 124.779 56.9511 131.628 57.1378ZM88.257 82.5149C84.518 81.5799 84.518 81.5779 84.518 81.5769L84.521 81.5679L84.525 81.5509L84.538 81.4999C84.549 81.4589 84.564 81.4029 84.582 81.3339C84.62 81.1969 84.674 81.0049 84.744 80.7649C84.886 80.2849 85.098 79.6099 85.386 78.7899C85.962 77.1529 86.856 74.9099 88.136 72.4589C90.655 67.6349 94.883 61.5944 101.524 58.0935C107.984 54.6882 116.899 53.6403 123.725 53.3442C127.227 53.1923 130.355 53.2335 132.608 53.3123C133.737 53.3518 134.651 53.4008 135.288 53.4405C135.607 53.4604 135.857 53.4779 136.031 53.4907C136.117 53.4971 136.185 53.5023 136.232 53.5061L136.288 53.5106L136.305 53.512L136.314 53.5127C136.314 53.5128 136.314 53.5127 135.989 57.3532C139.341 59.2557 139.341 59.255 139.341 59.2557L139.337 59.2633L139.329 59.2777L139.301 59.3265C139.277 59.3679 139.243 59.4266 139.199 59.5018C139.112 59.6521 138.985 59.8682 138.821 60.1424C138.494 60.6907 138.018 61.4725 137.413 62.4259C136.204 64.3299 134.471 66.9339 132.366 69.7369C128.265 75.2009 122.363 81.9639 115.903 85.3689C109.261 88.8699 101.889 88.9459 96.485 88.2979C93.739 87.9679 91.384 87.4379 89.708 86.9879C88.868 86.7629 88.192 86.5559 87.716 86.4019C87.478 86.3249 87.289 86.2609 87.155 86.2139C87.087 86.1899 87.033 86.1709 86.993 86.1569L86.944 86.1389L86.927 86.1329L86.918 86.1289C86.917 86.1289 86.916 86.1279 88.257 82.5149ZM84.518 81.5799L88.257 82.5149L86.916 86.1279C85.074 85.4449 84.041 83.4849 84.518 81.5799Z" fill="white"/>
<path d="M113.128 80.241C122.734 75.178 132.027 59.8767 132.027 59.8767C110.185 65.443 95.871 76.458 91.444 81.27C91.444 81.27 103.522 85.305 113.128 80.241Z" fill="#79C01E"/>
<path d="M71.199 72.47C75.157 74.104 84.792 89.521 87.472 97.352C87.696 98.005 89.49 97.322 89.303 96.751C88.212 89.524 83.829 72.177 79.011 66.396C73.362 66.731 71.212 70.885 71.199 72.47Z" fill="#8C5936"/>
<path fill-rule="evenodd" clip-rule="evenodd" d="M69.693 76.0179C68.259 75.4099 67.331 73.9969 67.344 72.4369C67.362 70.3869 68.501 68.0499 70.23 66.2749C72.127 64.3279 74.973 62.7746 78.782 62.5483C80.004 62.4757 81.188 62.9879 81.971 63.9283C83.529 65.7979 84.881 68.3659 86.034 71.0289C87.214 73.7519 88.294 76.8299 89.238 79.8979C91.089 85.9149 92.49 92.1409 93.085 95.9889C93.557 98.1349 92.168 99.6169 91.74 100.011C91.108 100.594 90.394 100.943 89.828 101.144C89.272 101.341 88.446 101.54 87.51 101.45C86.611 101.364 84.588 100.828 83.825 98.5999C82.63 95.1079 79.739 89.5959 76.572 84.6709C75.007 82.2359 73.443 80.0529 72.076 78.4169C71.392 77.5979 70.8 76.9679 70.32 76.5289C69.892 76.1369 69.687 76.0199 69.688 76.0169C69.688 76.0169 69.69 76.0169 69.693 76.0179ZM89.303 96.7509C89.302 96.7429 89.3 96.7349 89.299 96.7269C89.174 95.9009 89.006 94.9439 88.8 93.8889C88.466 92.1779 88.031 90.2079 87.513 88.1139C85.546 80.1679 82.385 70.4449 79.011 66.3959C76.143 66.5659 74.177 67.7209 72.934 69.0239C72.705 69.2639 72.5 69.5099 72.319 69.7549C71.549 70.7979 71.204 71.8379 71.198 72.4699C74.054 73.6489 79.863 81.9989 83.885 89.5009C84.824 91.2519 85.665 92.9569 86.349 94.5139C86.744 95.4139 87.086 96.2629 87.364 97.0439C87.401 97.1479 87.437 97.2509 87.472 97.3519C87.695 98.0049 89.49 97.3219 89.303 96.7509ZM85.478 97.2349C85.506 97.4629 85.559 97.7029 85.641 97.9529C85.574 97.7479 85.524 97.5389 85.492 97.3269C85.487 97.2959 85.483 97.2659 85.478 97.2349Z" fill="white"/>
<path d="M80.294 67.0648C81.325 68.4988 80.135 71.1188 77.636 72.9168C75.136 74.7138 72.274 75.0088 71.243 73.5748C70.211 72.1408 71.401 69.5208 73.901 67.7238C76.4 65.9258 79.262 65.6308 80.294 67.0648Z" fill="#C27A49"/>
<path d="M81.814 110.07C85.028 115.587 80.925 123.969 72.649 128.792C64.373 133.614 55.0575 133.05 51.8426 127.533C48.6277 122.015 52.7307 113.633 61.007 108.811C69.283 103.989 78.599 104.552 81.814 110.07Z" fill="#FFC671"/>
<path fill-rule="evenodd" clip-rule="evenodd" d="M65.681 114.871C66.817 116.671 66.28 119.051 64.48 120.188C63.107 121.055 62.046 122.104 61.246 123.339C60.088 125.126 57.7011 125.635 55.9149 124.477C54.1288 123.319 53.6195 120.933 54.7773 119.146C56.2138 116.93 58.094 115.104 60.364 113.67C62.164 112.533 64.544 113.071 65.681 114.871Z" fill="white"/>
</g>
</g>
<defs>
<filter id="filter0_di_0_1" x="-6.07692" y="-6.23078" width="204.905" height="254.692" filterUnits="userSpaceOnUse" color-interpolation-filters="sRGB">
<feFlood flood-opacity="0" result="BackgroundImageFix"/>
<feColorMatrix in="SourceAlpha" type="matrix" values="0 0 0 0 0 0 0 0 0 0 0 0 0 0 0 0 0 0 127 0" result="hardAlpha"/>
<feOffset dx="3.46154" dy="4.61538"/>
<feGaussianBlur stdDeviation="5.42308"/>
<feComposite in2="hardAlpha" operator="out"/>
<feColorMatrix type="matrix" values="0 0 0 0 0.921569 0 0 0 0 0.921569 0 0 0 0 0.921569 0 0 0 0.31 0"/>
<feBlend mode="normal" in2="BackgroundImageFix" result="effect1_dropShadow_0_1"/>
<feBlend mode="normal" in="SourceGraphic" in2="effect1_dropShadow_0_1" result="shape"/>
<feColorMatrix in="SourceAlpha" type="matrix" values="0 0 0 0 0 0 0 0 0 0 0 0 0 0 0 0 0 0 127 0" result="hardAlpha"/>
<feOffset dx="-8.07692" dy="-5.76923"/>
<feGaussianBlur stdDeviation="10.2692"/>
<feComposite in2="hardAlpha" operator="arithmetic" k2="-1" k3="1"/>
<feColorMatrix type="matrix" values="0 0 0 0 0.922969 0 0 0 0 0.920293 0 0 0 0 0.920293 0 0 0 1 0"/>
<feBlend mode="normal" in2="shape" result="effect2_innerShadow_0_1"/>
</filter>
<filter id="filter1_d_0_1" x="-0.833327" y="-2.83333" width="189.603" height="240.083" filterUnits="userSpaceOnUse" color-interpolation-filters="sRGB">
<feFlood flood-opacity="0" result="BackgroundImageFix"/>
<feColorMatrix in="SourceAlpha" type="matrix" values="0 0 0 0 0 0 0 0 0 0 0 0 0 0 0 0 0 0 127 0" result="hardAlpha"/>
<feOffset dx="0.708333" dy="0.708333"/>
<feGaussianBlur stdDeviation="1.77083"/>
<feColorMatrix type="matrix" values="0 0 0 0 0 0 0 0 0 0 0 0 0 0 0 0 0 0 0.25 0"/>
<feBlend mode="overlay" in2="BackgroundImageFix" result="effect1_dropShadow_0_1"/>
<feBlend mode="normal" in="SourceGraphic" in2="effect1_dropShadow_0_1" result="shape"/>
</filter>
<filter id="filter2_d_0_1" x="16.4415" y="34.1417" width="157.502" height="192.687" filterUnits="userSpaceOnUse" color-interpolation-filters="sRGB">
<feFlood flood-opacity="0" result="BackgroundImageFix"/>
<feColorMatrix in="SourceAlpha" type="matrix" values="0 0 0 0 0 0 0 0 0 0 0 0 0 0 0 0 0 0 127 0" result="hardAlpha"/>
<feOffset dx="6" dy="9"/>
<feGaussianBlur stdDeviation="14.05"/>
<feComposite in2="hardAlpha" operator="out"/>
<feColorMatrix type="matrix" values="0 0 0 0 0.988285 0 0 0 0 0.690939 0 0 0 0 0.477145 0 0 0 1 0"/>
<feBlend mode="normal" in2="BackgroundImageFix" result="effect1_dropShadow_0_1"/>
<feBlend mode="normal" in="SourceGraphic" in2="effect1_dropShadow_0_1" result="shape"/>
</filter>
</defs>
</svg>
