<svg width="339" height="127" viewBox="0 0 339 127" fill="none" xmlns="http://www.w3.org/2000/svg">
<g filter="url(#filter0_d_0_1)">
<path d="M84.6974 76.6611C85.3395 77.0481 85.5963 77.8223 85.4679 78.4675C83.9269 83.1125 81.6154 87.2415 78.405 90.7252C77.8913 91.2414 77.1208 91.3704 76.4787 90.9833L70.9568 87.8866C68.6453 89.822 66.077 91.3704 63.2518 92.4026V98.7251C63.2518 99.3702 62.7382 100.015 61.9677 100.273C57.4731 101.177 52.7217 101.306 47.9702 100.273C47.3282 100.015 46.8145 99.3702 46.8145 98.7251V92.4026C43.8609 91.3704 41.2926 89.822 38.9811 87.8866L33.4592 90.9833C32.8171 91.3704 32.0466 91.2414 31.5329 90.7252C28.4509 87.2415 26.011 83.1125 24.5984 78.4675C24.3416 77.8223 24.5984 77.0481 25.2405 76.6611L30.7624 73.5644C30.2488 70.4677 30.2488 67.5 30.7624 64.4033L25.2405 61.3066C24.5984 60.9195 24.3416 60.1453 24.5984 59.5002C26.011 54.8551 28.4509 50.7262 31.5329 47.2424C32.0466 46.7263 32.8171 46.5973 33.4592 46.9843L38.9811 50.2101C41.2926 48.1456 43.8609 46.5973 46.8145 45.565V39.2426C46.8145 38.5974 47.1997 37.9523 47.9702 37.8233C52.4648 36.791 57.2162 36.662 61.9677 37.8233C62.7382 37.9523 63.2518 38.5974 63.2518 39.2426V45.565C66.077 46.5973 68.6453 48.1456 70.9568 50.081L76.4787 46.9843C77.1208 46.5973 77.8913 46.7263 78.405 47.2424C81.487 50.7262 83.9269 54.8551 85.3395 59.5002C85.5963 60.1453 85.3395 60.9195 84.6974 61.3066L79.1755 64.4033C79.8176 67.5 79.8176 70.4677 79.1755 73.5644L84.6974 76.6611ZM55.0332 79.2416C60.6835 79.2416 65.3065 74.7256 65.3065 68.9193C65.3065 63.242 60.6835 58.597 55.0332 58.597C49.2544 58.597 44.7598 63.242 44.7598 68.9193C44.7598 74.7256 49.2544 79.2416 55.0332 79.2416Z" fill="url(#paint0_linear_0_1)"/>
</g>
<g filter="url(#filter1_d_0_1)">
<path d="M273.589 40.1337C275.025 37.2286 279.095 37.3496 280.411 40.1337L288.311 56.233L305.786 58.775C308.898 59.2592 310.095 63.1327 307.821 65.4326L295.253 77.9004L298.245 95.4523C298.724 98.5995 295.373 101.02 292.62 99.5679L277.06 91.2156L261.38 99.5679C258.627 101.02 255.276 98.5995 255.755 95.4523L258.747 77.9004L246.179 65.4326C243.905 63.1327 245.102 59.2592 248.214 58.775L265.809 56.233L273.589 40.1337Z" fill="url(#paint1_linear_0_1)"/>
</g>
<ellipse cx="103.647" cy="12.8191" rx="19.4601" ry="7.77356" transform="rotate(31.6062 103.647 12.8191)" fill="white"/>
<ellipse cx="103.648" cy="12.8191" rx="19.4601" ry="7.77356" transform="rotate(31.6062 103.648 12.8191)" fill="white"/>
<ellipse cx="321.647" cy="16.8191" rx="19.4601" ry="7.77356" transform="rotate(31.6062 321.647 16.8191)" fill="white"/>
<ellipse cx="8.55304" cy="121.714" rx="8.65002" ry="4.65757" transform="rotate(14.8094 8.55304 121.714)" fill="white" fill-opacity="0.9"/>
<ellipse cx="228.553" cy="121.714" rx="8.65002" ry="4.65757" transform="rotate(14.8094 228.553 121.714)" fill="white" fill-opacity="0.9"/>
<defs>
<filter id="filter0_d_0_1" x="19" y="37" width="72" height="72" filterUnits="userSpaceOnUse" color-interpolation-filters="sRGB">
<feFlood flood-opacity="0" result="BackgroundImageFix"/>
<feColorMatrix in="SourceAlpha" type="matrix" values="0 0 0 0 0 0 0 0 0 0 0 0 0 0 0 0 0 0 127 0" result="hardAlpha"/>
<feOffset dy="4"/>
<feGaussianBlur stdDeviation="2"/>
<feComposite in2="hardAlpha" operator="out"/>
<feColorMatrix type="matrix" values="0 0 0 0 0 0 0 0 0 0 0 0 0 0 0 0 0 0 0.25 0"/>
<feBlend mode="normal" in2="BackgroundImageFix" result="effect1_dropShadow_0_1"/>
<feBlend mode="normal" in="SourceGraphic" in2="effect1_dropShadow_0_1" result="shape"/>
</filter>
<filter id="filter1_d_0_1" x="241" y="37" width="72" height="72" filterUnits="userSpaceOnUse" color-interpolation-filters="sRGB">
<feFlood flood-opacity="0" result="BackgroundImageFix"/>
<feColorMatrix in="SourceAlpha" type="matrix" values="0 0 0 0 0 0 0 0 0 0 0 0 0 0 0 0 0 0 127 0" result="hardAlpha"/>
<feOffset dy="4"/>
<feGaussianBlur stdDeviation="2"/>
<feComposite in2="hardAlpha" operator="out"/>
<feColorMatrix type="matrix" values="0 0 0 0 0 0 0 0 0 0 0 0 0 0 0 0 0 0 0.25 0"/>
<feBlend mode="normal" in2="BackgroundImageFix" result="effect1_dropShadow_0_1"/>
<feBlend mode="normal" in="SourceGraphic" in2="effect1_dropShadow_0_1" result="shape"/>
</filter>
<linearGradient id="paint0_linear_0_1" x1="55" y1="37" x2="55" y2="419" gradientUnits="userSpaceOnUse">
<stop stop-color="white"/>
<stop offset="1" stop-color="#F98C57" stop-opacity="0"/>
</linearGradient>
<linearGradient id="paint1_linear_0_1" x1="277" y1="38" x2="277" y2="335.5" gradientUnits="userSpaceOnUse">
<stop stop-color="white"/>
<stop offset="1" stop-color="#F705DF" stop-opacity="0"/>
</linearGradient>
</defs>
</svg>
