<svg width="1108" height="625" viewBox="0 0 1108 625" fill="none" xmlns="http://www.w3.org/2000/svg">
<path d="M917.816 109.216C918.065 104.994 917.185 101.302 915.539 98.2622C914.187 95.7645 913.811 92.7799 914.422 89.9131C914.465 89.7122 914.513 89.5116 914.565 89.3121L916.601 81.5876C917.756 77.2068 915.543 72.6629 911.508 71.4708C907.322 70.234 902.905 72.9688 901.714 77.4842L900.597 81.7215C899.588 85.5517 896.878 88.6698 893.363 90.0286C889.931 91.3554 886.712 93.8247 884.166 97.5951C875.335 110.67 863.983 121.856 850.717 130.26C837.451 138.664 822.91 143.879 808.107 145.776C798.848 146.962 792.916 154.165 791.335 162.164C789.748 170.197 792.549 179.034 800.781 183.39C810.778 188.682 821.973 191.691 833.72 191.949C864.567 192.626 893.654 174.2 908.363 144.665C913.969 133.407 917.102 121.308 917.816 109.216Z" fill="#EEBF00"/>
<path d="M914.422 89.9131C914.465 89.7122 914.513 89.5116 914.565 89.3121L915.633 85.2603L916.601 81.5876C917.756 77.2068 915.543 72.6629 911.508 71.4708C907.322 70.234 902.905 72.9688 901.714 77.4842L900.682 81.4014L900.597 81.7215C899.588 85.5517 896.878 88.6698 893.363 90.0286C889.931 91.3554 886.712 93.8247 884.166 97.5951C875.335 110.67 863.983 121.856 850.717 130.26C837.451 138.664 822.91 143.879 808.107 145.776C798.848 146.962 792.916 154.165 791.335 162.164C816.082 171.476 843.782 168.826 867.368 154.89C890.796 141.047 907.912 117.398 914.422 89.9131Z" fill="#FFD422"/>
<path d="M917.262 79.6783L918.231 76.0056C919.385 71.6248 917.172 67.0809 913.138 65.8888C908.952 64.652 904.534 67.3868 903.343 71.9022L902.311 75.8194C906.865 78.4435 912.01 79.7717 917.262 79.6783Z" fill="#AA6100"/>
<path d="M829.036 183.058C828.362 185.487 822.228 187.179 815.34 185.269C808.452 183.36 803.42 178.571 804.094 176.143C804.767 173.715 810.896 173.294 817.784 175.204C824.671 177.114 829.709 180.63 829.036 183.058Z" fill="white"/>
<path d="M884.296 106.954C882.995 105.677 884.306 100.964 888.232 96.9641C892.159 92.9639 897.214 91.1912 898.515 92.4683C899.816 93.7454 897.688 98.0236 893.762 102.024C889.835 106.024 885.597 108.231 884.296 106.954Z" fill="white" fill-opacity="0.85"/>
<path d="M1020.62 244.842C1017.42 242.076 1013.95 240.529 1010.54 239.986C1007.74 239.54 1005.14 238.024 1003.23 235.794C1003.1 235.638 1002.97 235.479 1002.84 235.316L997.951 229.001C995.177 225.42 990.224 224.412 986.823 226.89C983.295 229.46 982.779 234.63 985.639 238.322L988.323 241.786C990.749 244.917 991.576 248.964 990.517 252.581C989.482 256.112 989.485 260.168 990.928 264.483C995.935 279.446 997.909 295.26 996.511 310.901C995.112 326.543 990.408 341.257 982.909 354.16C978.219 362.231 980.328 371.321 985.716 377.441C991.127 383.587 999.844 386.738 1008.31 382.854C1018.59 378.138 1027.79 371.082 1035.14 361.915C1054.44 337.842 1057.51 303.546 1043.01 273.907C1037.48 262.609 1029.78 252.763 1020.62 244.842Z" fill="#EEBF00"/>
<path d="M1003.23 235.794C1003.1 235.638 1002.97 235.479 1002.84 235.316L1000.28 232.003L997.951 229.001C995.176 225.42 990.224 224.412 986.823 226.89C983.295 229.46 982.779 234.63 985.639 238.322L988.12 241.524L988.323 241.786C990.749 244.917 991.576 248.964 990.517 252.581C989.482 256.112 989.485 260.168 990.928 264.483C995.935 279.446 997.909 295.26 996.511 310.901C995.112 326.543 990.408 341.257 982.909 354.16C978.219 362.231 980.328 371.321 985.716 377.441C1008.16 363.462 1022.9 339.864 1026.19 312.666C1029.45 285.65 1021.09 257.679 1003.23 235.794Z" fill="#FFD422"/>
<path d="M996.838 227.315L994.512 224.312C991.737 220.731 986.784 219.724 983.384 222.201C979.856 224.772 979.34 229.942 982.2 233.633L984.681 236.835C989.534 234.817 993.718 231.54 996.838 227.315Z" fill="#AA6100"/>
<path d="M1025.23 360.225C1026.75 362.236 1024.36 368.135 1018.66 372.441C1012.95 376.746 1006.09 377.828 1004.57 375.817C1003.05 373.805 1006.45 368.684 1012.15 364.379C1017.86 360.073 1023.71 358.214 1025.23 360.225Z" fill="white"/>
<path d="M998.437 270.072C996.632 270.328 993.688 266.421 992.901 260.871C992.114 255.321 993.782 250.23 995.587 249.975C997.392 249.719 999.493 254.01 1000.28 259.56C1001.07 265.11 1000.24 269.816 998.437 270.072Z" fill="white" fill-opacity="0.85"/>
<path d="M143.026 395.36C146.269 392.644 148.351 389.471 149.434 386.188C150.323 383.491 152.236 381.169 154.742 379.648C154.917 379.541 155.096 379.438 155.277 379.339L162.294 375.521C166.273 373.356 168.061 368.628 166.16 364.875C164.188 360.981 159.167 359.643 155.065 361.875L151.216 363.969C147.737 365.863 143.61 366.031 140.209 364.405C136.889 362.819 132.885 362.171 128.395 362.905C112.823 365.451 96.897 364.866 81.6815 360.98C66.4659 357.094 52.6956 350.094 41.1599 340.625C33.9451 334.702 24.6344 335.328 17.7298 339.666C10.7969 344.022 6.28974 352.123 8.76771 361.101C11.7768 372.004 17.2679 382.214 25.1392 390.937C45.81 413.844 79.1713 422.365 110.75 412.803C122.787 409.158 133.739 403.136 143.026 395.36Z" fill="#EEBF00"/>
<path d="M154.742 379.648C154.917 379.541 155.096 379.438 155.277 379.339L158.957 377.337L162.294 375.521C166.273 373.356 168.061 368.628 166.16 364.875C164.188 360.981 159.167 359.643 155.065 361.875L151.507 363.811L151.216 363.969C147.737 365.863 143.61 366.031 140.209 364.405C136.889 362.819 132.885 362.171 128.395 362.905C112.823 365.451 96.897 364.866 81.6815 360.98C66.4659 357.094 52.6956 350.094 41.1599 340.625C33.9451 334.702 24.6344 335.328 17.7298 339.666C27.9337 364.059 48.8651 382.394 75.1856 389.993C101.331 397.54 130.279 393.768 154.742 379.648Z" fill="#FFD422"/>
<path d="M164.137 374.693L167.474 372.877C171.453 370.712 173.241 365.985 171.34 362.231C169.368 358.337 164.347 356.999 160.245 359.231L156.687 361.167C157.902 366.281 160.466 370.936 164.137 374.693Z" fill="#AA6100"/>
<path d="M28.3945 381.43C26.166 382.606 20.7258 379.304 17.3897 372.983C14.0537 366.662 14.085 359.716 16.3136 358.54C18.5421 357.363 23.053 361.534 26.3891 367.855C29.7252 374.176 30.623 380.254 28.3945 381.43Z" fill="white"/>
<path d="M121.675 369.422C121.712 367.599 126.04 365.319 131.644 365.432C137.248 365.544 142.006 368.005 141.969 369.828C141.933 371.651 137.36 373.038 131.756 372.925C126.152 372.813 121.639 371.244 121.675 369.422Z" fill="white" fill-opacity="0.85"/>
<path d="M172.817 62.2163C173.066 57.9942 172.186 54.3022 170.54 51.2622C169.188 48.7645 168.812 45.7799 169.423 42.9131C169.466 42.7122 169.514 42.5116 169.566 42.3121L171.602 34.5876C172.757 30.2068 170.544 25.6629 166.509 24.4708C162.323 23.234 157.906 25.9688 156.715 30.4842L155.598 34.7215C154.589 38.5517 151.879 41.6698 148.364 43.0286C144.932 44.3554 141.713 46.8247 139.167 50.5951C130.336 63.6703 118.984 74.8561 105.718 83.2599C92.4515 91.6636 77.9111 96.8793 63.1079 98.7756C53.8494 99.9616 47.9165 107.165 46.336 115.164C44.7489 123.197 47.5499 132.034 55.782 136.39C65.7789 141.682 76.9744 144.691 88.7208 144.949C119.568 145.626 148.655 127.2 163.364 97.6652C168.97 86.407 172.103 74.3078 172.817 62.2163Z" fill="#EEBF00"/>
<path d="M169.423 42.9131C169.466 42.7122 169.513 42.5116 169.566 42.3121L170.634 38.2603L171.602 34.5876C172.757 30.2068 170.544 25.6629 166.509 24.4708C162.323 23.234 157.906 25.9688 156.715 30.4842L155.683 34.4014L155.598 34.7215C154.589 38.5517 151.879 41.6698 148.364 43.0286C144.932 44.3554 141.713 46.8247 139.167 50.5951C130.336 63.6703 118.984 74.8561 105.718 83.2599C92.4515 91.6636 77.9111 96.8793 63.1079 98.7756C53.8494 99.9616 47.9165 107.165 46.336 115.164C71.083 124.476 98.7828 121.826 122.369 107.89C145.797 94.0472 162.913 70.3977 169.423 42.9131Z" fill="#FFD422"/>
<path d="M172.263 32.6783L173.232 29.0056C174.386 24.6248 172.173 20.0809 168.139 18.8888C163.953 17.652 159.535 20.3868 158.344 24.9022L157.312 28.8194C161.865 31.4435 167.011 32.7717 172.263 32.6783Z" fill="#AA6100"/>
<path d="M84.0365 136.058C83.3633 138.487 77.2286 140.179 70.341 138.269C63.4535 136.36 58.4213 131.571 59.0945 129.143C59.7677 126.715 65.8969 126.294 72.7845 128.204C79.672 130.114 84.7098 133.63 84.0365 136.058Z" fill="white"/>
<path d="M139.297 59.9543C137.996 58.6772 139.307 53.9643 143.233 49.9641C147.16 45.9639 152.215 44.1912 153.516 45.4683C154.817 46.7454 152.689 51.0236 148.763 55.0238C144.836 59.024 140.598 61.2315 139.297 59.9543Z" fill="white" fill-opacity="0.85"/>
<path d="M914.461 488.147C912.158 484.599 909.26 482.148 906.133 480.676C903.563 479.466 901.49 477.286 900.283 474.615C900.198 474.428 900.117 474.238 900.042 474.046L897.101 466.619C895.434 462.406 890.958 460.059 887.002 461.492C882.898 462.978 880.962 467.799 882.68 472.141L884.293 476.216C885.751 479.899 885.418 484.016 883.393 487.194C881.416 490.298 880.288 494.195 880.473 498.74C881.114 514.506 878.606 530.244 872.906 544.877C867.206 559.51 858.589 572.331 847.793 582.635C841.041 589.08 840.534 598.398 844.005 605.777C847.489 613.186 854.984 618.641 864.196 617.269C875.384 615.602 886.184 611.388 895.795 604.631C921.037 586.886 933.535 554.802 927.867 522.297C925.707 509.907 921.055 498.307 914.461 488.147Z" fill="#EEBF00"/>
<path d="M900.283 474.615C900.198 474.428 900.117 474.238 900.042 474.046L898.499 470.15L897.101 466.619C895.434 462.406 890.958 460.059 887.002 461.492C882.898 462.978 880.962 467.799 882.68 472.141L884.171 475.908L884.293 476.216C885.751 479.899 885.418 484.016 883.393 487.194C881.416 490.298 880.288 494.195 880.473 498.74C881.114 514.506 878.606 530.244 872.906 544.877C867.206 559.51 858.589 572.331 847.793 582.635C841.041 589.08 840.534 598.398 844.005 605.777C869.453 598.602 890.188 580.045 900.918 554.838C911.576 529.799 911.337 500.607 900.283 474.615Z" fill="#FFD422"/>
<path d="M896.501 464.689L895.103 461.157C893.436 456.945 888.96 454.598 885.004 456.03C880.9 457.516 878.964 462.338 880.682 466.68L882.173 470.447C887.396 469.86 892.327 467.878 896.501 464.689Z" fill="#AA6100"/>
<path d="M886.752 600.248C887.649 602.603 883.713 607.603 877.034 610.149C870.356 612.695 863.464 611.823 862.567 609.469C861.669 607.114 866.355 603.141 873.034 600.595C879.712 598.049 885.854 597.894 886.752 600.248Z" fill="white"/>
<path d="M886.128 506.2C884.323 505.943 882.584 501.37 883.374 495.821C884.164 490.272 887.184 485.847 888.989 486.104C890.794 486.361 891.616 491.068 890.826 496.617C890.036 502.166 887.933 506.457 886.128 506.2Z" fill="white" fill-opacity="0.85"/>
</svg>
