<svg width="554" height="752" viewBox="0 0 554 752" fill="none" xmlns="http://www.w3.org/2000/svg">
<g filter="url(#filter0_d_0_1)">
<rect x="44.5635" y="276.926" width="462.564" height="465.597" rx="45.4981" transform="rotate(0.441137 44.5635 276.926)" fill="#FFF5D1"/>
</g>
<path d="M155.313 15.1887L260.164 3.32528L266.899 224.07L200 231.64L155.313 15.1887Z" fill="url(#paint0_linear_0_1)"/>
<path d="M399.438 14.5382L294.636 2.24754L287.002 222.963L353.869 230.805L399.438 14.5382Z" fill="url(#paint1_linear_0_1)"/>
<path d="M142.017 49.2681L55.0982 74.9408L123.544 251.713L179.001 235.333L142.017 49.2681Z" fill="url(#paint2_linear_0_1)"/>
<path d="M412.599 48.6713L499.412 74.698L430.246 251.19L374.856 234.584L412.599 48.6713Z" fill="url(#paint3_linear_0_1)"/>
<path d="M59.4443 131.538L1.76475 160.929L72.9386 276.113L109.74 257.361L59.4443 131.538Z" fill="url(#paint4_linear_0_1)"/>
<path d="M494.832 131.276L552.391 160.902L480.749 275.796L444.024 256.894L494.832 131.276Z" fill="url(#paint5_linear_0_1)"/>
<g filter="url(#filter1_d_0_1)">
<path d="M32.6462 266.71C20.5787 244.947 14.545 234.065 17.9507 226.994C21.3564 219.923 32.2357 218.091 53.9945 214.427L87.3941 208.802C101.494 206.428 108.544 205.241 113.662 208.883C118.78 212.526 119.968 219.576 122.342 233.676L132.687 295.109C135.062 309.209 136.249 316.259 132.606 321.377C128.964 326.495 121.913 327.683 107.813 330.057L74.7247 335.629C52.9378 339.298 42.0444 341.132 36.5162 335.622C30.988 330.111 33.0336 317.727 37.1249 292.96C38.0883 287.128 38.3927 281.995 37.6023 278.39C36.8944 275.16 35.0926 271.122 32.6462 266.71Z" fill="url(#paint6_linear_0_1)"/>
</g>
<g filter="url(#filter2_d_0_1)">
<path d="M518.686 270.453C531.087 248.878 537.288 238.09 533.991 230.967C530.695 223.844 519.845 221.845 498.145 217.846L464.836 211.708C450.774 209.117 443.743 207.821 438.57 211.385C433.396 214.948 432.101 221.979 429.509 236.041L418.22 297.308C415.628 311.369 414.333 318.4 417.896 323.574C421.46 328.747 428.49 330.043 442.552 332.634L475.551 338.715C497.279 342.719 508.143 344.721 513.755 339.296C519.368 333.871 517.513 321.457 513.804 296.63C512.93 290.783 512.705 285.647 513.551 282.054C514.308 278.836 516.172 274.826 518.686 270.453Z" fill="url(#paint7_linear_0_1)"/>
</g>
<g filter="url(#filter3_d_0_1)">
<path d="M70.5677 231.827C70.7478 208.429 70.8379 196.73 78.3936 188.215C85.9493 179.7 96.9747 178.293 119.026 175.479C155.15 170.868 209.672 165.965 275.818 166.475C341.964 166.984 396.404 172.726 432.454 177.892C454.459 181.045 465.461 182.622 472.885 191.252C480.308 199.882 480.218 211.581 480.038 234.979L479.872 256.595C479.634 287.491 479.515 302.939 469.769 311.862C460.023 320.786 444.513 319.537 413.493 317.039C368.254 313.397 310.184 309.304 274.721 309.031C239.257 308.758 181.131 311.956 135.842 314.901C104.787 316.921 89.2595 317.931 79.652 308.859C70.0444 299.786 70.1634 284.338 70.4013 253.442L70.5677 231.827Z" fill="url(#paint8_linear_0_1)"/>
</g>
<path d="M222.695 225.034C221.903 225.028 221.292 224.82 220.863 224.408C220.459 223.973 220.259 223.36 220.266 222.568L220.423 202.084C220.429 201.292 220.638 200.694 221.049 200.289C221.484 199.86 222.098 199.649 222.89 199.655L235.742 199.754C236.342 199.759 236.796 199.918 237.106 200.233C237.44 200.547 237.604 200.992 237.6 201.568C237.595 202.168 237.424 202.635 237.085 202.968C236.771 203.278 236.313 203.431 235.713 203.426L224.842 203.342L224.788 210.326L234.868 210.404C235.492 210.408 235.958 210.568 236.268 210.882C236.578 211.197 236.73 211.654 236.725 212.254C236.721 212.854 236.561 213.309 236.247 213.618C235.933 213.928 235.463 214.08 234.839 214.076L224.76 213.998L224.703 221.378L235.575 221.461C236.174 221.466 236.629 221.626 236.939 221.94C237.272 222.254 237.437 222.712 237.432 223.312C237.428 223.912 237.256 224.366 236.918 224.676C236.603 224.985 236.146 225.138 235.546 225.133L222.695 225.034ZM246.912 225.581C245.64 225.571 244.502 225.322 243.497 224.834C242.517 224.323 241.743 223.645 241.173 222.801C240.628 221.956 240.359 221.006 240.367 219.95C240.377 218.654 240.721 217.637 241.399 216.898C242.076 216.135 243.173 215.592 244.687 215.267C246.202 214.943 248.231 214.791 250.775 214.81L252.575 214.824L252.555 217.416L250.791 217.402C249.303 217.391 248.114 217.454 247.225 217.591C246.336 217.728 245.698 217.975 245.312 218.332C244.949 218.665 244.765 219.144 244.761 219.768C244.754 220.56 245.025 221.21 245.574 221.718C246.122 222.227 246.888 222.485 247.872 222.492C248.664 222.498 249.361 222.324 249.964 221.968C250.591 221.589 251.087 221.077 251.452 220.432C251.817 219.786 252.002 219.044 252.009 218.204L252.041 214.064C252.05 212.864 251.793 211.998 251.269 211.466C250.745 210.934 249.859 210.663 248.611 210.653C247.915 210.648 247.158 210.726 246.341 210.888C245.548 211.05 244.705 211.331 243.814 211.733C243.357 211.945 242.948 212.002 242.589 211.903C242.254 211.805 241.991 211.611 241.801 211.321C241.612 211.008 241.518 210.671 241.521 210.311C241.524 209.951 241.623 209.604 241.817 209.269C242.012 208.911 242.338 208.649 242.795 208.485C243.903 208.037 244.961 207.721 245.971 207.537C247.004 207.353 247.941 207.264 248.781 207.271C250.509 207.284 251.923 207.559 253.023 208.095C254.147 208.632 254.98 209.442 255.524 210.527C256.068 211.587 256.333 212.957 256.32 214.637L256.254 223.277C256.248 224.021 256.064 224.595 255.701 225C255.338 225.382 254.82 225.57 254.148 225.565C253.476 225.559 252.95 225.363 252.569 224.976C252.212 224.566 252.036 223.988 252.042 223.244L252.055 221.516L252.343 221.519C252.169 222.357 251.827 223.087 251.318 223.707C250.834 224.303 250.218 224.766 249.472 225.096C248.725 225.427 247.872 225.588 246.912 225.581ZM263.107 225.633C262.363 225.628 261.789 225.431 261.384 225.044C261.003 224.633 260.815 224.056 260.821 223.312L260.926 209.704C260.932 208.96 261.128 208.398 261.515 208.017C261.902 207.636 262.443 207.448 263.139 207.453C263.835 207.459 264.374 207.655 264.755 208.042C265.136 208.429 265.324 208.994 265.318 209.738L265.3 212.006L264.94 212.003C265.287 210.566 265.956 209.479 266.946 208.743C267.935 208.006 269.247 207.572 270.88 207.441C271.384 207.397 271.779 207.532 272.065 207.846C272.374 208.136 272.551 208.594 272.594 209.218C272.637 209.818 272.49 210.309 272.151 210.691C271.836 211.048 271.354 211.261 270.706 211.328L269.913 211.393C268.448 211.526 267.341 211.974 266.591 212.736C265.841 213.474 265.461 214.527 265.45 215.895L265.393 223.347C265.387 224.091 265.191 224.666 264.804 225.071C264.417 225.452 263.851 225.639 263.107 225.633ZM277.133 225.741C276.413 225.736 275.862 225.54 275.481 225.153C275.1 224.742 274.913 224.164 274.918 223.42L275.023 209.813C275.029 209.069 275.225 208.506 275.612 208.125C275.999 207.744 276.541 207.556 277.237 207.562C277.933 207.567 278.471 207.763 278.852 208.15C279.233 208.537 279.421 209.103 279.415 209.847L279.396 212.295L279.007 211.391C279.545 210.124 280.368 209.17 281.477 208.53C282.61 207.867 283.885 207.541 285.301 207.552C286.717 207.563 287.879 207.836 288.787 208.371C289.695 208.906 290.372 209.715 290.82 210.798C291.268 211.858 291.486 213.204 291.473 214.836L291.406 223.547C291.4 224.291 291.204 224.866 290.817 225.271C290.43 225.652 289.876 225.84 289.156 225.834C288.436 225.829 287.874 225.632 287.469 225.245C287.088 224.834 286.9 224.257 286.906 223.513L286.971 215.017C286.982 213.649 286.726 212.651 286.203 212.023C285.703 211.395 284.914 211.077 283.834 211.069C282.514 211.058 281.455 211.47 280.656 212.304C279.882 213.114 279.49 214.203 279.479 215.571L279.418 223.455C279.406 224.991 278.645 225.753 277.133 225.741ZM304.634 226.025C302.642 226.01 300.929 225.625 299.495 224.87C298.06 224.115 296.953 223.05 296.171 221.676C295.414 220.302 295.042 218.679 295.057 216.807C295.071 214.983 295.455 213.39 296.209 212.028C296.988 210.666 298.04 209.606 299.366 208.848C300.716 208.067 302.243 207.682 303.947 207.695C305.195 207.705 306.309 207.918 307.29 208.333C308.295 208.749 309.142 209.343 309.832 210.117C310.547 210.89 311.079 211.83 311.431 212.937C311.806 214.02 311.989 215.246 311.979 216.614C311.975 217.045 311.817 217.38 311.503 217.618C311.213 217.832 310.792 217.936 310.24 217.932L298.685 217.843L298.705 215.251L308.82 215.329L308.24 215.865C308.249 214.761 308.088 213.835 307.758 213.089C307.451 212.343 306.988 211.775 306.367 211.386C305.77 210.974 305.015 210.764 304.103 210.757C303.095 210.749 302.23 210.982 301.506 211.457C300.806 211.907 300.261 212.563 299.871 213.424C299.504 214.261 299.317 215.268 299.307 216.444L299.306 216.696C299.29 218.664 299.735 220.143 300.639 221.134C301.568 222.102 302.932 222.592 304.732 222.606C305.356 222.611 306.053 222.544 306.822 222.406C307.615 222.244 308.361 221.974 309.06 221.595C309.566 221.311 310.011 221.194 310.395 221.245C310.779 221.272 311.078 221.407 311.292 221.648C311.53 221.89 311.672 222.191 311.717 222.552C311.762 222.888 311.688 223.235 311.493 223.594C311.322 223.953 311.02 224.262 310.586 224.523C309.742 225.045 308.767 225.433 307.661 225.689C306.579 225.92 305.57 226.032 304.634 226.025ZM322.237 226.161C320.701 226.149 319.348 225.767 318.178 225.013C317.032 224.261 316.14 223.198 315.502 221.825C314.865 220.428 314.554 218.793 314.568 216.921C314.583 215.026 314.919 213.408 315.577 212.069C316.236 210.706 317.144 209.657 318.302 208.922C319.483 208.187 320.842 207.825 322.378 207.837C323.842 207.849 325.111 208.218 326.186 208.947C327.284 209.675 328.021 210.629 328.396 211.808L328 211.805L328.072 202.445C328.078 201.701 328.274 201.139 328.661 200.757C329.048 200.376 329.601 200.189 330.321 200.194C331.041 200.2 331.592 200.396 331.973 200.783C332.378 201.17 332.577 201.736 332.572 202.48L332.407 223.863C332.401 224.607 332.205 225.181 331.818 225.587C331.431 225.968 330.877 226.155 330.157 226.15C329.437 226.144 328.887 225.948 328.506 225.561C328.125 225.15 327.937 224.573 327.943 223.829L327.965 221.021L328.352 222.104C327.983 223.349 327.243 224.339 326.134 225.075C325.024 225.81 323.725 226.172 322.237 226.161ZM323.523 222.751C324.411 222.757 325.193 222.547 325.868 222.121C326.544 221.694 327.064 221.062 327.431 220.225C327.822 219.364 328.022 218.297 328.032 217.025C328.046 215.105 327.649 213.674 326.841 212.732C326.032 211.766 324.956 211.277 323.612 211.267C322.724 211.26 321.942 211.47 321.267 211.897C320.592 212.3 320.059 212.932 319.668 213.793C319.302 214.63 319.114 215.684 319.104 216.956C319.089 218.852 319.486 220.295 320.295 221.286C321.103 222.252 322.179 222.74 323.523 222.751Z" fill="white"/>
<g filter="url(#filter4_d_0_1)">
<rect x="66.1309" y="627.438" width="414.032" height="90.9961" rx="30.332" transform="rotate(0.441137 66.1309 627.438)" fill="#FFDF6D"/>
</g>
<g filter="url(#filter5_d_0_1)">
<rect x="72.1611" y="632.034" width="401.9" height="75.8301" rx="30.332" transform="rotate(0.441137 72.1611 632.034)" fill="#FFCF25"/>
</g>
<path d="M84.1355 652.811C84.2042 643.9 91.4829 636.733 100.393 636.802L445.75 639.461C454.66 639.529 461.827 646.808 461.758 655.717C461.686 665.045 453.798 672.381 444.492 671.75C409.766 669.397 329.623 664.363 273.45 663.917C216.875 663.468 136.065 667.286 101.152 669.108C91.8365 669.595 84.0637 662.138 84.1355 652.811Z" fill="#FFD84C"/>
<path d="M179.665 691.902C178.662 691.894 177.888 691.613 177.342 691.059C176.829 690.473 176.577 689.662 176.585 688.626L176.698 673.873L177.98 677.62L166.411 661.079C165.995 660.493 165.805 659.877 165.842 659.23C165.912 658.551 166.192 657.987 166.681 657.538C167.17 657.056 167.851 656.819 168.724 656.826C169.371 656.831 169.953 656.997 170.468 657.324C171.015 657.652 171.529 658.158 172.009 658.841L180.601 671.234L179.242 671.224L188.073 658.964C188.596 658.257 189.101 657.759 189.589 657.472C190.076 657.152 190.676 656.995 191.388 657C192.229 657.007 192.874 657.238 193.324 657.694C193.806 658.119 194.044 658.654 194.039 659.301C194.067 659.949 193.835 660.626 193.344 661.335L181.619 677.648L182.91 673.921L182.796 688.674C182.78 690.842 181.736 691.918 179.665 691.902ZM198.482 692.047C197.706 692.041 197.076 691.858 196.594 691.498C196.143 691.139 195.872 690.668 195.779 690.085C195.687 689.469 195.806 688.791 196.135 688.049L209.165 659.758C209.593 658.823 210.1 658.163 210.685 657.78C211.303 657.364 212 657.159 212.777 657.165C213.521 657.17 214.182 657.386 214.761 657.811C215.373 658.204 215.886 658.871 216.299 659.813L228.941 688.302C229.291 689.048 229.415 689.729 229.313 690.343C229.212 690.957 228.933 691.44 228.477 691.792C228.022 692.112 227.422 692.27 226.678 692.264C225.772 692.257 225.062 692.041 224.547 691.617C224.066 691.16 223.634 690.477 223.253 689.568L220.155 682.216L222.762 683.935L202.283 683.777L204.916 682.099L201.754 689.403C201.326 690.338 200.884 691.014 200.428 691.431C199.972 691.848 199.323 692.053 198.482 692.047ZM212.625 664.298L205.706 680.406L204.456 678.843L220.665 678.968L219.44 680.512L212.722 664.299L212.625 664.298ZM245.251 692.407C244.248 692.399 243.474 692.118 242.928 691.564C242.415 690.978 242.162 690.167 242.17 689.131L242.284 674.378L243.565 678.125L231.996 661.584C231.58 660.998 231.391 660.382 231.428 659.735C231.498 659.056 231.777 658.492 232.266 658.043C232.755 657.561 233.436 657.324 234.31 657.331C234.957 657.335 235.538 657.502 236.053 657.829C236.601 658.157 237.114 658.662 237.595 659.346L246.186 671.739L244.828 671.729L253.658 659.469C254.181 658.762 254.686 658.264 255.174 657.976C255.662 657.657 256.262 657.5 256.973 657.505C257.814 657.511 258.46 657.743 258.909 658.199C259.391 658.624 259.63 659.159 259.625 659.806C259.652 660.454 259.421 661.131 258.93 661.839L247.205 678.153L248.495 674.426L248.382 689.179C248.365 691.347 247.321 692.423 245.251 692.407ZM266.702 697.377C266.277 697.891 265.822 698.179 265.336 698.24C264.883 698.333 264.479 698.249 264.125 697.988C263.771 697.726 263.58 697.353 263.551 696.867C263.522 696.414 263.737 695.914 264.194 695.368C264.847 694.564 265.29 693.758 265.523 692.951C265.755 692.144 265.874 691.417 265.879 690.77L266.109 692.422C264.977 692.413 264.057 692.082 263.35 691.43C262.676 690.745 262.343 689.853 262.352 688.753C262.36 687.718 262.69 686.879 263.342 686.237C263.994 685.562 264.87 685.229 265.97 685.238C267.103 685.247 267.989 685.642 268.631 686.423C269.272 687.172 269.587 688.259 269.576 689.682C269.57 690.459 269.483 691.267 269.315 692.107C269.179 692.915 268.898 693.754 268.47 694.624C268.075 695.527 267.486 696.444 266.702 697.377ZM310.004 693.002C306.704 692.977 303.814 692.227 301.334 690.752C298.886 689.277 296.993 687.224 295.655 684.593C294.316 681.929 293.661 678.818 293.688 675.259C293.709 672.574 294.116 670.167 294.908 668.037C295.702 665.876 296.816 664.04 298.251 662.53C299.719 660.989 301.459 659.821 303.471 659.028C305.516 658.202 307.784 657.799 310.275 657.818C313.607 657.844 316.497 658.594 318.945 660.069C321.393 661.512 323.286 663.548 324.625 666.179C325.963 668.81 326.619 671.905 326.592 675.464C326.571 678.15 326.164 680.573 325.371 682.735C324.578 684.896 323.447 686.748 321.979 688.29C320.544 689.832 318.804 691.016 316.759 691.841C314.747 692.635 312.495 693.022 310.004 693.002ZM310.045 687.664C312.148 687.68 313.931 687.209 315.395 686.249C316.89 685.29 318.034 683.892 318.824 682.053C319.647 680.216 320.069 678.019 320.088 675.463C320.118 671.58 319.268 668.565 317.537 666.416C315.839 664.267 313.404 663.181 310.234 663.157C308.163 663.141 306.38 663.612 304.884 664.571C303.389 665.498 302.23 666.881 301.407 668.718C300.616 670.524 300.211 672.721 300.191 675.31C300.161 679.16 301.012 682.175 302.742 684.356C304.473 686.537 306.907 687.64 310.045 687.664ZM338.791 693.127C337.788 693.119 337.013 692.838 336.467 692.284C335.954 691.698 335.702 690.903 335.709 689.9L335.93 661.268C335.938 660.232 336.203 659.458 336.724 658.944C337.278 658.398 338.057 658.129 339.06 658.137C340.063 658.145 340.821 658.426 341.335 658.98C341.881 659.501 342.15 660.28 342.142 661.315L342.046 673.69L342.143 673.691L356.179 659.822C356.701 659.308 357.221 658.924 357.741 658.669C358.261 658.414 358.844 658.289 359.491 658.294C360.429 658.302 361.091 658.549 361.475 659.038C361.892 659.526 362.049 660.094 361.947 660.74C361.878 661.386 361.566 661.983 361.011 662.528L346.733 676.444L346.803 673.63L361.489 688.788C362.163 689.441 362.514 690.123 362.541 690.835C362.568 691.547 362.337 692.144 361.847 692.625C361.391 693.075 360.71 693.296 359.804 693.289C359.028 693.283 358.398 693.116 357.915 692.789C357.465 692.462 356.934 691.989 356.324 691.369L342.118 676.943L342.021 676.942L341.921 689.948C341.913 690.951 341.648 691.742 341.126 692.32C340.604 692.866 339.826 693.135 338.791 693.127ZM374.464 683.161C373.849 683.157 373.365 682.959 373.012 682.568C372.692 682.177 372.502 681.626 372.443 680.913L371.13 662.364C371.042 661.166 371.308 660.213 371.928 659.506C372.549 658.767 373.457 658.402 374.654 658.411C375.819 658.42 376.69 658.799 377.266 659.547C377.876 660.264 378.127 661.22 378.021 662.417L376.422 680.944C376.384 681.655 376.186 682.204 375.827 682.589C375.501 682.975 375.046 683.166 374.464 683.161ZM374.386 693.256C373.286 693.247 372.399 692.9 371.725 692.216C371.083 691.531 370.766 690.655 370.774 689.588C370.782 688.552 371.112 687.714 371.764 687.072C372.449 686.397 373.341 686.065 374.441 686.073C375.574 686.082 376.445 686.428 377.054 687.112C377.696 687.764 378.013 688.608 378.005 689.643C377.997 690.711 377.667 691.582 377.015 692.257C376.395 692.931 375.518 693.264 374.386 693.256Z" fill="white"/>
<path d="M177.342 691.059L176.772 691.558L176.786 691.575L176.802 691.591L177.342 691.059ZM176.698 673.873L177.416 673.628L175.94 673.868L176.698 673.873ZM177.98 677.62L177.358 678.055L178.697 677.375L177.98 677.62ZM166.411 661.079L167.032 660.644L167.029 660.639L166.411 661.079ZM165.842 659.23L165.088 659.152L165.086 659.169L165.085 659.186L165.842 659.23ZM166.681 657.538L167.194 658.096L167.203 658.087L167.213 658.078L166.681 657.538ZM170.468 657.324L170.061 657.964L170.07 657.97L170.078 657.975L170.468 657.324ZM172.009 658.841L172.632 658.409L172.63 658.405L172.009 658.841ZM180.601 671.234L180.595 671.992L182.057 672.004L181.224 670.802L180.601 671.234ZM179.242 671.224L178.627 670.78L177.77 671.971L179.236 671.982L179.242 671.224ZM188.073 658.964L187.463 658.514L187.457 658.521L188.073 658.964ZM189.589 657.472L189.974 658.125L189.989 658.116L190.004 658.106L189.589 657.472ZM193.324 657.694L192.784 658.226L192.802 658.246L192.823 658.264L193.324 657.694ZM194.039 659.301L193.281 659.296L193.281 659.315L193.282 659.334L194.039 659.301ZM193.344 661.335L193.96 661.777L193.968 661.767L193.344 661.335ZM181.619 677.648L180.903 677.4L182.235 678.091L181.619 677.648ZM182.91 673.921L183.668 673.927L182.193 673.673L182.91 673.921ZM179.671 691.144C178.809 691.137 178.25 690.9 177.883 690.527L176.802 691.591C177.527 692.327 178.516 692.651 179.66 692.66L179.671 691.144ZM177.913 690.56C177.558 690.153 177.336 689.544 177.343 688.632L175.826 688.621C175.817 689.78 176.101 690.792 176.772 691.558L177.913 690.56ZM177.343 688.632L177.456 673.879L175.94 673.868L175.826 688.621L177.343 688.632ZM175.981 674.119L177.262 677.866L178.697 677.375L177.416 673.628L175.981 674.119ZM178.601 677.186L167.032 660.644L165.789 661.513L177.358 678.055L178.601 677.186ZM167.029 660.639C166.701 660.178 166.573 659.73 166.6 659.274L165.085 659.186C165.037 660.024 165.288 660.808 165.793 661.518L167.029 660.639ZM166.597 659.308C166.648 658.807 166.845 658.416 167.194 658.096L166.167 656.979C165.538 657.558 165.177 658.295 165.088 659.152L166.597 659.308ZM167.213 658.078C167.522 657.773 167.989 657.578 168.719 657.584L168.73 656.067C167.713 656.059 166.817 656.339 166.149 656.997L167.213 658.078ZM168.719 657.584C169.232 657.588 169.673 657.718 170.061 657.964L170.875 656.684C170.232 656.276 169.511 656.073 168.73 656.067L168.719 657.584ZM170.078 657.975C170.511 658.234 170.952 658.655 171.389 659.277L172.63 658.405C172.106 657.66 171.519 657.07 170.857 656.674L170.078 657.975ZM171.386 659.273L179.978 671.666L181.224 670.802L172.632 658.409L171.386 659.273ZM180.607 670.476L179.248 670.465L179.236 671.982L180.595 671.992L180.607 670.476ZM179.858 671.667L188.688 659.408L187.457 658.521L178.627 670.78L179.858 671.667ZM188.682 659.415C189.175 658.749 189.609 658.34 189.974 658.125L189.203 656.818C188.593 657.178 188.016 657.765 187.463 658.514L188.682 659.415ZM190.004 658.106C190.342 657.884 190.787 657.754 191.382 657.758L191.394 656.242C190.566 656.235 189.811 656.419 189.173 656.837L190.004 658.106ZM191.382 657.758C192.088 657.764 192.515 657.954 192.784 658.226L193.864 657.162C193.233 656.522 192.371 656.249 191.394 656.242L191.382 657.758ZM192.823 658.264C193.138 658.541 193.284 658.867 193.281 659.296L194.798 659.307C194.804 658.442 194.473 657.696 193.825 657.125L192.823 658.264ZM193.282 659.334C193.3 659.769 193.149 660.286 192.721 660.903L193.968 661.767C194.522 660.967 194.833 660.129 194.797 659.269L193.282 659.334ZM192.729 660.892L181.004 677.206L182.235 678.091L193.96 661.777L192.729 660.892ZM182.336 677.896L183.627 674.169L182.193 673.673L180.903 677.4L182.336 677.896ZM182.152 673.915L182.038 688.668L183.555 688.68L183.668 673.927L182.152 673.915ZM182.038 688.668C182.031 689.644 181.793 690.233 181.457 690.579C181.127 690.919 180.581 691.151 179.671 691.144L179.66 692.66C180.821 692.669 181.831 692.371 182.545 691.635C183.253 690.905 183.545 689.872 183.555 688.68L182.038 688.668ZM196.594 691.498L196.12 692.091L196.13 692.099L196.14 692.106L196.594 691.498ZM195.779 690.085L195.029 690.197L195.03 690.204L195.779 690.085ZM196.135 688.049L195.446 687.732L195.442 687.741L196.135 688.049ZM209.165 659.758L209.854 660.075L209.855 660.073L209.165 659.758ZM210.685 657.78L211.101 658.414L211.108 658.409L210.685 657.78ZM214.761 657.811L214.313 658.422L214.332 658.436L214.352 658.449L214.761 657.811ZM216.299 659.813L215.605 660.117L215.606 660.12L216.299 659.813ZM228.941 688.302L228.248 688.609L228.251 688.616L228.254 688.623L228.941 688.302ZM229.313 690.343L228.565 690.219L229.313 690.343ZM228.477 691.792L228.913 692.413L228.927 692.403L228.941 692.392L228.477 691.792ZM224.547 691.617L224.026 692.167L224.045 692.185L224.065 692.201L224.547 691.617ZM223.253 689.568L223.952 689.275L223.952 689.274L223.253 689.568ZM220.155 682.216L220.572 681.583L218.486 680.207L219.456 682.51L220.155 682.216ZM222.762 683.935L222.757 684.693L225.321 684.713L223.18 683.301L222.762 683.935ZM202.283 683.777L201.875 683.137L199.713 684.515L202.277 684.535L202.283 683.777ZM204.916 682.099L205.612 682.4L206.595 680.129L204.509 681.459L204.916 682.099ZM201.754 689.403L202.444 689.718L202.447 689.711L202.45 689.704L201.754 689.403ZM200.428 691.431L199.916 690.871L200.428 691.431ZM212.625 664.298L212.63 663.54L212.127 663.536L211.928 663.999L212.625 664.298ZM205.706 680.406L205.114 680.88L205.904 681.867L206.403 680.705L205.706 680.406ZM204.456 678.843L204.462 678.085L202.869 678.073L203.864 679.317L204.456 678.843ZM220.665 678.968L221.259 679.44L222.226 678.222L220.671 678.21L220.665 678.968ZM219.44 680.512L218.739 680.802L219.233 681.993L220.034 680.983L219.44 680.512ZM212.722 664.299L213.422 664.008L213.23 663.544L212.728 663.54L212.722 664.299ZM198.488 691.288C197.826 691.283 197.367 691.129 197.047 690.89L196.14 692.106C196.785 692.587 197.585 692.798 198.476 692.805L198.488 691.288ZM197.067 690.906C196.768 690.668 196.592 690.367 196.528 689.966L195.03 690.204C195.152 690.968 195.518 691.61 196.12 692.091L197.067 690.906ZM196.529 689.972C196.464 689.537 196.54 689.006 196.828 688.357L195.442 687.741C195.071 688.575 194.91 689.402 195.029 690.197L196.529 689.972ZM196.824 688.366L209.854 660.075L208.476 659.44L195.446 687.732L196.824 688.366ZM209.855 660.073C210.249 659.211 210.678 658.691 211.101 658.414L210.269 657.145C209.521 657.636 208.937 658.435 208.476 659.442L209.855 660.073ZM211.108 658.409C211.594 658.082 212.14 657.918 212.771 657.923L212.782 656.406C211.86 656.399 211.012 656.645 210.262 657.15L211.108 658.409ZM212.771 657.923C213.362 657.928 213.867 658.095 214.313 658.422L215.21 657.2C214.498 656.677 213.68 656.413 212.782 656.406L212.771 657.923ZM214.352 658.449C214.796 658.734 215.228 659.258 215.605 660.117L216.993 659.508C216.544 658.484 215.951 657.674 215.171 657.173L214.352 658.449ZM215.606 660.12L228.248 688.609L229.634 687.994L216.992 659.505L215.606 660.12ZM228.254 688.623C228.56 689.276 228.635 689.798 228.565 690.219L230.062 690.467C230.195 689.659 230.022 688.821 229.628 687.98L228.254 688.623ZM228.565 690.219C228.492 690.661 228.305 690.967 228.013 691.193L228.941 692.392C229.561 691.913 229.931 691.253 230.062 690.467L228.565 690.219ZM228.041 691.172C227.752 691.375 227.322 691.51 226.684 691.506L226.672 693.022C227.522 693.029 228.291 692.85 228.913 692.413L228.041 691.172ZM226.684 691.506C225.89 691.499 225.369 691.311 225.03 691.032L224.065 692.201C224.755 692.771 225.654 693.014 226.672 693.022L226.684 691.506ZM225.069 691.066C224.691 690.708 224.311 690.13 223.952 689.275L222.554 689.861C222.958 690.825 223.44 691.611 224.026 692.167L225.069 691.066ZM223.952 689.274L220.854 681.921L219.456 682.51L222.554 689.863L223.952 689.274ZM219.738 682.849L222.345 684.568L223.18 683.301L220.572 681.583L219.738 682.849ZM222.768 683.176L202.289 683.019L202.277 684.535L222.757 684.693L222.768 683.176ZM202.69 684.416L205.324 682.738L204.509 681.459L201.875 683.137L202.69 684.416ZM204.221 681.797L201.058 689.101L202.45 689.704L205.612 682.4L204.221 681.797ZM201.065 689.087C200.655 689.983 200.264 690.554 199.916 690.871L200.94 691.99C201.505 691.474 201.998 690.692 202.444 689.718L201.065 689.087ZM199.916 690.871C199.646 691.119 199.208 691.294 198.488 691.288L198.476 692.805C199.439 692.812 200.298 692.577 200.94 691.99L199.916 690.871ZM211.928 663.999L205.009 680.107L206.403 680.705L213.321 664.597L211.928 663.999ZM206.298 679.932L205.048 678.37L203.864 679.317L205.114 680.88L206.298 679.932ZM204.45 679.602L220.659 679.726L220.671 678.21L204.462 678.085L204.45 679.602ZM220.071 678.497L218.846 680.04L220.034 680.983L221.259 679.44L220.071 678.497ZM220.141 680.221L213.422 664.008L212.021 664.589L218.739 680.802L220.141 680.221ZM212.728 663.54L212.63 663.54L212.619 665.056L212.716 665.057L212.728 663.54ZM242.928 691.564L242.357 692.063L242.372 692.08L242.387 692.096L242.928 691.564ZM242.284 674.378L243.001 674.133L241.525 674.373L242.284 674.378ZM243.565 678.125L242.944 678.56L244.283 677.88L243.565 678.125ZM231.996 661.584L232.617 661.149L232.614 661.144L231.996 661.584ZM231.428 659.735L230.674 659.657L230.672 659.674L230.671 659.691L231.428 659.735ZM232.266 658.043L232.779 658.601L232.789 658.592L232.798 658.583L232.266 658.043ZM236.053 657.829L235.646 658.469L235.655 658.475L235.664 658.48L236.053 657.829ZM237.595 659.346L238.218 658.914L238.215 658.91L237.595 659.346ZM246.186 671.739L246.181 672.497L247.643 672.509L246.81 671.307L246.186 671.739ZM244.828 671.729L244.212 671.285L243.355 672.476L244.822 672.487L244.828 671.729ZM253.658 659.469L253.048 659.019L253.043 659.026L253.658 659.469ZM255.174 657.976L255.559 658.63L255.575 658.621L255.59 658.611L255.174 657.976ZM258.909 658.199L258.369 658.731L258.388 658.751L258.408 658.769L258.909 658.199ZM259.625 659.806L258.867 659.801L258.866 659.82L258.867 659.838L259.625 659.806ZM258.93 661.839L259.546 662.282L259.553 662.271L258.93 661.839ZM247.205 678.153L246.488 677.905L247.821 678.596L247.205 678.153ZM248.495 674.426L249.254 674.432L247.779 674.178L248.495 674.426ZM245.257 691.649C244.394 691.642 243.835 691.405 243.468 691.032L242.387 692.096C243.112 692.832 244.102 693.156 245.245 693.165L245.257 691.649ZM243.498 691.064C243.143 690.658 242.921 690.049 242.928 689.137L241.412 689.126C241.403 690.285 241.686 691.297 242.357 692.063L243.498 691.064ZM242.928 689.137L243.042 674.384L241.525 674.373L241.412 689.126L242.928 689.137ZM241.566 674.624L242.848 678.371L244.283 677.88L243.001 674.133L241.566 674.624ZM244.186 677.691L232.617 661.149L231.375 662.018L242.944 678.56L244.186 677.691ZM232.614 661.144C232.286 660.683 232.159 660.235 232.185 659.779L230.671 659.691C230.623 660.529 230.874 661.313 231.378 662.023L232.614 661.144ZM232.182 659.813C232.234 659.312 232.431 658.921 232.779 658.601L231.753 657.484C231.124 658.063 230.762 658.8 230.674 659.657L232.182 659.813ZM232.798 658.583C233.107 658.278 233.574 658.083 234.304 658.089L234.316 656.572C233.299 656.564 232.403 656.844 231.734 657.502L232.798 658.583ZM234.304 658.089C234.818 658.093 235.258 658.223 235.646 658.469L236.46 657.189C235.818 656.781 235.096 656.578 234.316 656.572L234.304 658.089ZM235.664 658.48C236.097 658.739 236.537 659.16 236.974 659.782L238.215 658.91C237.692 658.165 237.105 657.575 236.443 657.179L235.664 658.48ZM236.971 659.778L245.563 672.171L246.81 671.307L238.218 658.914L236.971 659.778ZM246.192 670.981L244.833 670.97L244.822 672.487L246.181 672.497L246.192 670.981ZM245.443 672.172L254.273 659.913L253.043 659.026L244.212 671.285L245.443 672.172ZM254.268 659.92C254.76 659.254 255.194 658.845 255.559 658.63L254.789 657.323C254.179 657.683 253.602 658.27 253.048 659.019L254.268 659.92ZM255.59 658.611C255.927 658.389 256.372 658.259 256.967 658.263L256.979 656.747C256.151 656.74 255.396 656.924 254.758 657.342L255.59 658.611ZM256.967 658.263C257.673 658.269 258.101 658.459 258.369 658.731L259.45 657.667C258.819 657.027 257.956 656.754 256.979 656.747L256.967 658.263ZM258.408 658.769C258.724 659.046 258.87 659.372 258.867 659.801L260.383 659.812C260.39 658.947 260.059 658.201 259.41 657.63L258.408 658.769ZM258.867 659.838C258.886 660.274 258.734 660.791 258.307 661.407L259.553 662.271C260.107 661.472 260.419 660.634 260.382 659.774L258.867 659.838ZM258.314 661.397L246.589 677.711L247.821 678.596L259.546 662.282L258.314 661.397ZM247.921 678.401L249.212 674.674L247.779 674.178L246.488 677.905L247.921 678.401ZM247.737 674.42L247.624 689.173L249.14 689.185L249.254 674.432L247.737 674.42ZM247.624 689.173C247.616 690.149 247.378 690.738 247.042 691.084C246.713 691.424 246.166 691.656 245.257 691.649L245.245 693.165C246.406 693.174 247.417 692.876 248.131 692.14C248.839 691.41 249.131 690.377 249.14 689.185L247.624 689.173ZM266.702 697.377L266.121 696.889L266.117 696.894L266.702 697.377ZM265.336 698.24L265.242 697.487L265.212 697.491L265.183 697.497L265.336 698.24ZM263.551 696.867L264.308 696.823L264.308 696.819L263.551 696.867ZM264.194 695.368L264.775 695.854L264.782 695.846L264.194 695.368ZM265.523 692.951L266.251 693.161L265.523 692.951ZM265.879 690.77L266.63 690.665L265.121 690.764L265.879 690.77ZM266.109 692.422L266.103 693.18L266.981 693.187L266.86 692.317L266.109 692.422ZM263.35 691.43L262.81 691.962L262.823 691.975L262.836 691.987L263.35 691.43ZM263.342 686.237L263.874 686.777L263.881 686.771L263.887 686.764L263.342 686.237ZM268.631 686.423L268.044 686.904L268.049 686.91L268.054 686.916L268.631 686.423ZM269.315 692.107L268.571 691.958L268.569 691.97L268.567 691.981L269.315 692.107ZM268.47 694.624L267.79 694.29L267.782 694.305L267.776 694.32L268.47 694.624ZM266.117 696.894C265.77 697.314 265.475 697.458 265.242 697.487L265.431 698.992C266.169 698.9 266.784 698.468 267.287 697.859L266.117 696.894ZM265.183 697.497C264.928 697.55 264.746 697.504 264.576 697.378L263.674 698.598C264.212 698.995 264.837 699.117 265.49 698.982L265.183 697.497ZM264.576 697.378C264.423 697.265 264.325 697.11 264.308 696.823L262.794 696.912C262.835 697.595 263.119 698.187 263.674 698.598L264.576 697.378ZM264.308 696.819C264.297 696.645 264.375 696.333 264.775 695.854L263.612 694.881C263.098 695.495 262.748 696.183 262.794 696.915L264.308 696.819ZM264.782 695.846C265.485 694.981 265.985 694.086 266.251 693.161L264.794 692.741C264.595 693.43 264.209 694.147 263.605 694.889L264.782 695.846ZM266.251 693.161C266.498 692.306 266.632 691.509 266.638 690.776L265.121 690.764C265.117 691.325 265.013 691.982 264.794 692.741L266.251 693.161ZM265.128 690.875L265.358 692.526L266.86 692.317L266.63 690.665L265.128 690.875ZM266.115 691.664C265.136 691.656 264.409 691.375 263.865 690.873L262.836 691.987C263.705 692.79 264.818 693.17 266.103 693.18L266.115 691.664ZM263.891 690.898C263.378 690.378 263.103 689.689 263.11 688.759L261.594 688.747C261.584 690.017 261.974 691.113 262.81 691.962L263.891 690.898ZM263.11 688.759C263.117 687.896 263.384 687.259 263.874 686.777L262.81 685.697C261.995 686.499 261.603 687.539 261.594 688.747L263.11 688.759ZM263.887 686.764C264.37 686.265 265.033 685.989 265.965 685.996L265.976 684.48C264.708 684.47 263.618 684.86 262.797 685.71L263.887 686.764ZM265.965 685.996C266.902 686.003 267.564 686.319 268.044 686.904L269.217 685.942C268.415 684.965 267.303 684.49 265.976 684.48L265.965 685.996ZM268.054 686.916C268.534 687.476 268.828 688.356 268.818 689.676L270.334 689.688C270.346 688.161 270.01 686.869 269.207 685.93L268.054 686.916ZM268.818 689.676C268.812 690.4 268.731 691.16 268.571 691.958L270.058 692.256C270.235 691.373 270.328 690.517 270.334 689.688L268.818 689.676ZM268.567 691.981C268.445 692.705 268.19 693.474 267.79 694.29L269.151 694.958C269.605 694.034 269.913 693.124 270.063 692.232L268.567 691.981ZM267.776 694.32C267.415 695.143 266.869 696 266.121 696.889L267.282 697.865C268.102 696.889 268.735 695.911 269.165 694.928L267.776 694.32ZM301.334 690.752L300.943 691.401L300.946 691.403L301.334 690.752ZM295.655 684.593L294.977 684.933L294.979 684.937L295.655 684.593ZM294.908 668.037L295.619 668.302L295.62 668.299L294.908 668.037ZM298.251 662.53L297.702 662.008L297.702 662.008L298.251 662.53ZM303.471 659.028L303.749 659.733L303.755 659.731L303.471 659.028ZM318.945 660.069L318.554 660.719L318.56 660.722L318.945 660.069ZM324.625 666.179L325.301 665.836L324.625 666.179ZM325.371 682.735L324.659 682.474L325.371 682.735ZM321.979 688.29L321.43 687.767L321.424 687.773L321.979 688.29ZM316.759 691.841L317.037 692.547L317.043 692.544L316.759 691.841ZM315.395 686.249L314.985 685.611L314.979 685.615L315.395 686.249ZM318.824 682.053L318.132 681.743L318.128 681.754L318.824 682.053ZM317.537 666.416L316.942 666.886L316.947 666.892L317.537 666.416ZM304.884 664.571L305.284 665.216L305.294 665.21L304.884 664.571ZM301.407 668.718L300.714 668.409L300.712 668.414L301.407 668.718ZM302.742 684.356L303.336 683.885L302.742 684.356ZM310.01 692.244C306.825 692.22 304.07 691.497 301.722 690.1L300.946 691.403C303.558 692.957 306.583 693.734 309.998 693.761L310.01 692.244ZM301.725 690.102C299.403 688.703 297.607 686.758 296.33 684.249L294.979 684.937C296.38 687.69 298.369 689.851 300.943 691.401L301.725 690.102ZM296.332 684.252C295.057 681.715 294.42 678.727 294.446 675.265L292.93 675.254C292.902 678.91 293.575 682.144 294.977 684.933L296.332 684.252ZM294.446 675.265C294.466 672.653 294.862 670.335 295.619 668.302L294.198 667.773C293.369 669.999 292.951 672.496 292.93 675.254L294.446 675.265ZM295.62 668.299C296.382 666.224 297.444 664.48 298.801 663.053L297.702 662.008C296.188 663.6 295.022 665.528 294.197 667.776L295.62 668.299ZM298.8 663.053C300.191 661.593 301.838 660.487 303.749 659.733L303.193 658.322C301.08 659.156 299.247 660.385 297.702 662.008L298.8 663.053ZM303.755 659.731C305.696 658.947 307.864 658.558 310.269 658.577L310.281 657.06C307.703 657.04 305.335 657.457 303.187 658.325L303.755 659.731ZM310.269 658.577C313.488 658.601 316.241 659.325 318.554 660.719L319.336 659.42C316.754 657.864 313.726 657.087 310.281 657.06L310.269 658.577ZM318.56 660.722C320.878 662.089 322.673 664.016 323.949 666.523L325.301 665.836C323.899 663.081 321.907 660.935 319.33 659.416L318.56 660.722ZM323.949 666.523C325.222 669.026 325.86 671.996 325.833 675.458L327.35 675.47C327.378 671.815 326.705 668.595 325.301 665.836L323.949 666.523ZM325.833 675.458C325.813 678.071 325.418 680.406 324.659 682.474L326.083 682.996C326.911 680.74 327.329 678.228 327.35 675.47L325.833 675.458ZM324.659 682.474C323.899 684.546 322.821 686.306 321.43 687.767L322.529 688.813C324.074 687.19 325.257 685.247 326.083 682.996L324.659 682.474ZM321.424 687.773C320.068 689.23 318.422 690.352 316.475 691.138L317.043 692.544C319.186 691.679 321.02 690.434 322.534 688.807L321.424 687.773ZM316.481 691.136C314.572 691.888 312.419 692.263 310.01 692.244L309.998 693.761C312.572 693.781 314.922 693.381 317.037 692.547L316.481 691.136ZM310.039 688.422C312.261 688.44 314.198 687.94 315.81 686.884L314.979 685.615C313.664 686.477 312.035 686.921 310.051 686.906L310.039 688.422ZM315.804 686.888C317.443 685.837 318.678 684.312 319.521 682.353L318.128 681.754C317.389 683.471 316.338 684.744 314.985 685.611L315.804 686.888ZM319.516 682.363C320.392 680.408 320.826 678.102 320.847 675.469L319.33 675.457C319.311 677.935 318.902 680.023 318.132 681.744L319.516 682.363ZM320.847 675.469C320.877 671.481 320.005 668.272 318.128 665.94L316.947 666.892C318.53 668.858 319.359 671.679 319.33 675.457L320.847 675.469ZM318.132 665.946C316.268 663.587 313.599 662.424 310.24 662.398L310.228 663.915C313.209 663.938 315.41 664.948 316.942 666.886L318.132 665.946ZM310.24 662.398C308.047 662.381 306.114 662.882 304.475 663.933L305.294 665.21C306.646 664.342 308.28 663.9 310.228 663.915L310.24 662.398ZM304.485 663.927C302.843 664.945 301.59 666.453 300.715 668.409L302.099 669.028C302.869 667.308 303.935 666.052 305.284 665.216L304.485 663.927ZM300.712 668.414C299.87 670.339 299.453 672.643 299.433 675.304L300.949 675.315C300.969 672.799 301.363 670.71 302.101 669.023L300.712 668.414ZM299.433 675.304C299.402 679.261 300.275 682.467 302.148 684.828L303.336 683.885C301.748 681.883 300.921 679.058 300.949 675.315L299.433 675.304ZM302.148 684.828C304.04 687.213 306.705 688.397 310.039 688.422L310.051 686.906C307.109 686.883 304.905 685.862 303.336 683.885L302.148 684.828ZM336.467 692.284L335.897 692.784L335.912 692.8L335.927 692.816L336.467 692.284ZM336.724 658.944L336.192 658.404L336.724 658.944ZM341.335 658.98L340.778 659.495L340.794 659.512L340.811 659.528L341.335 658.98ZM342.046 673.69L341.288 673.685L341.282 674.443L342.04 674.449L342.046 673.69ZM342.143 673.691L342.138 674.45L342.452 674.452L342.676 674.231L342.143 673.691ZM356.179 659.822L355.647 659.282L355.646 659.282L356.179 659.822ZM357.741 658.669L357.407 657.988L357.741 658.669ZM361.475 659.038L360.879 659.507L360.889 659.518L360.898 659.53L361.475 659.038ZM361.947 660.74L361.198 660.622L361.195 660.64L361.193 660.659L361.947 660.74ZM361.011 662.528L361.541 663.071L361.544 663.069L361.011 662.528ZM346.733 676.444L345.975 676.425L345.928 678.287L347.262 676.987L346.733 676.444ZM346.803 673.63L347.348 673.102L346.09 671.804L346.045 673.611L346.803 673.63ZM361.489 688.788L360.944 689.316L360.953 689.325L360.962 689.333L361.489 688.788ZM362.541 690.835L363.298 690.806L363.298 690.806L362.541 690.835ZM361.847 692.625L362.38 693.165L361.847 692.625ZM357.915 692.789L357.47 693.403L357.479 693.41L357.49 693.417L357.915 692.789ZM356.324 691.369L356.865 690.837L356.324 691.369ZM342.118 676.943L342.659 676.411L342.438 676.187L342.124 676.184L342.118 676.943ZM342.021 676.942L342.027 676.184L341.269 676.178L341.263 676.936L342.021 676.942ZM341.126 692.32L341.675 692.844L341.682 692.836L341.689 692.828L341.126 692.32ZM338.796 692.369C337.934 692.362 337.375 692.125 337.008 691.752L335.927 692.816C336.652 693.552 337.642 693.877 338.785 693.885L338.796 692.369ZM337.038 691.785C336.679 691.374 336.461 690.778 336.468 689.906L334.951 689.894C334.942 691.028 335.23 692.021 335.897 692.784L337.038 691.785ZM336.468 689.906L336.688 661.273L335.171 661.262L334.951 689.894L336.468 689.906ZM336.688 661.273C336.695 660.355 336.928 659.807 337.256 659.484L336.192 658.404C335.477 659.108 335.18 660.11 335.171 661.262L336.688 661.273ZM337.256 659.484C337.629 659.117 338.191 658.889 339.054 658.895L339.066 657.379C337.923 657.37 336.928 657.679 336.192 658.404L337.256 659.484ZM339.054 658.895C339.92 658.902 340.449 659.14 340.778 659.495L341.891 658.464C341.193 657.711 340.206 657.388 339.066 657.379L339.054 658.895ZM340.811 659.528C341.156 659.858 341.39 660.403 341.383 661.31L342.9 661.321C342.909 660.157 342.605 659.145 341.858 658.431L340.811 659.528ZM341.383 661.31L341.288 673.685L342.805 673.696L342.9 661.321L341.383 661.31ZM342.04 674.449L342.138 674.45L342.149 672.933L342.052 672.932L342.04 674.449ZM342.676 674.231L356.712 660.361L355.646 659.282L341.61 673.152L342.676 674.231ZM356.711 660.362C357.189 659.891 357.645 659.561 358.075 659.35L357.407 657.988C356.798 658.287 356.212 658.725 355.647 659.282L356.711 660.362ZM358.075 659.35C358.477 659.153 358.942 659.048 359.485 659.053L359.497 657.536C358.746 657.53 358.044 657.676 357.407 657.988L358.075 659.35ZM359.485 659.053C360.313 659.059 360.698 659.276 360.879 659.507L362.071 658.568C361.483 657.822 360.545 657.544 359.497 657.536L359.485 659.053ZM360.898 659.53C361.168 659.846 361.267 660.189 361.198 660.622L362.696 660.858C362.832 659.998 362.616 659.206 362.052 658.545L360.898 659.53ZM361.193 660.659C361.146 661.099 360.934 661.54 360.479 661.988L361.544 663.069C362.197 662.425 362.609 661.674 362.701 660.821L361.193 660.659ZM360.482 661.985L346.204 675.901L347.262 676.987L361.541 663.071L360.482 661.985ZM347.491 676.463L347.561 673.649L346.045 673.611L345.975 676.425L347.491 676.463ZM346.258 674.158L360.944 689.316L362.033 688.261L347.348 673.102L346.258 674.158ZM360.962 689.333C361.541 689.894 361.766 690.402 361.783 690.863L363.298 690.806C363.262 689.843 362.785 688.987 362.016 688.243L360.962 689.333ZM361.783 690.863C361.802 691.372 361.646 691.759 361.315 692.085L362.38 693.165C363.027 692.528 363.333 691.722 363.298 690.806L361.783 690.863ZM361.315 692.085C361.053 692.343 360.599 692.537 359.81 692.531L359.798 694.047C360.821 694.055 361.729 693.806 362.38 693.165L361.315 692.085ZM359.81 692.531C359.134 692.525 358.665 692.381 358.341 692.161L357.49 693.417C358.131 693.852 358.921 694.04 359.798 694.047L359.81 692.531ZM358.361 692.175C357.957 691.882 357.46 691.441 356.865 690.837L355.784 691.901C356.409 692.536 356.972 693.041 357.47 693.403L358.361 692.175ZM356.865 690.837L342.659 676.411L341.578 677.475L355.784 691.901L356.865 690.837ZM342.124 676.184L342.027 676.184L342.015 677.7L342.112 677.701L342.124 676.184ZM341.263 676.936L341.163 689.942L342.679 689.954L342.78 676.948L341.263 676.936ZM341.163 689.942C341.156 690.814 340.929 691.407 340.563 691.812L341.689 692.828C342.368 692.076 342.671 691.088 342.679 689.954L341.163 689.942ZM340.578 691.796C340.248 692.141 339.703 692.376 338.796 692.369L338.785 693.885C339.949 693.894 340.961 693.591 341.675 692.844L340.578 691.796ZM373.012 682.568L372.426 683.049L372.437 683.063L372.449 683.076L373.012 682.568ZM372.443 680.913L371.686 680.967L371.687 680.976L372.443 680.913ZM371.13 662.364L371.886 662.31L371.886 662.308L371.13 662.364ZM371.928 659.506L372.498 660.006L372.504 660L372.509 659.994L371.928 659.506ZM377.266 659.547L376.666 660.01L376.677 660.025L376.689 660.039L377.266 659.547ZM378.021 662.417L377.265 662.35L377.265 662.351L378.021 662.417ZM376.422 680.944L375.667 680.879L375.666 680.891L375.665 680.904L376.422 680.944ZM375.827 682.589L375.272 682.073L375.26 682.086L375.248 682.099L375.827 682.589ZM371.725 692.216L371.172 692.735L371.178 692.741L371.184 692.748L371.725 692.216ZM371.764 687.072L371.232 686.531L371.764 687.072ZM377.054 687.112L376.488 687.617L376.501 687.631L376.514 687.644L377.054 687.112ZM377.015 692.257L376.469 691.729L376.463 691.736L376.456 691.743L377.015 692.257ZM374.47 682.403C374.029 682.4 373.762 682.266 373.575 682.06L372.449 683.076C372.969 683.651 373.67 683.914 374.458 683.92L374.47 682.403ZM373.599 682.087C373.408 681.855 373.25 681.471 373.198 680.85L371.687 680.976C371.754 681.781 371.975 682.499 372.426 683.049L373.599 682.087ZM373.199 680.86L371.886 662.31L370.373 662.417L371.686 680.967L373.199 680.86ZM371.886 662.308C371.809 661.254 372.046 660.521 372.498 660.006L371.358 659.006C370.569 659.905 370.275 661.078 370.373 662.419L371.886 662.308ZM372.509 659.994C372.95 659.469 373.618 659.161 374.648 659.169L374.66 657.653C373.296 657.642 372.147 658.065 371.347 659.019L372.509 659.994ZM374.648 659.169C375.64 659.177 376.264 659.489 376.666 660.01L377.867 659.085C377.115 658.109 375.998 657.663 374.66 657.653L374.648 659.169ZM376.689 660.039C377.132 660.56 377.359 661.297 377.265 662.35L378.776 662.484C378.895 661.144 378.619 659.967 377.844 659.056L376.689 660.039ZM377.265 662.351L375.667 680.879L377.178 681.009L378.776 662.482L377.265 662.351ZM375.665 680.904C375.633 681.5 375.473 681.857 375.272 682.073L376.382 683.106C376.899 682.551 377.135 681.81 377.179 680.984L375.665 680.904ZM375.248 682.099C375.09 682.286 374.865 682.406 374.47 682.403L374.458 683.92C375.227 683.926 375.911 683.664 376.406 683.079L375.248 682.099ZM374.392 692.497C373.461 692.49 372.777 692.204 372.265 691.684L371.184 692.748C372.02 693.597 373.111 694.004 374.38 694.014L374.392 692.497ZM372.278 691.697C371.788 691.175 371.526 690.496 371.533 689.594L370.016 689.582C370.007 690.815 370.378 691.888 371.172 692.735L372.278 691.697ZM371.533 689.594C371.539 688.731 371.807 688.094 372.296 687.612L371.232 686.531C370.418 687.334 370.025 688.374 370.016 689.582L371.533 689.594ZM372.296 687.612C372.817 687.1 373.505 686.824 374.436 686.831L374.447 685.315C373.178 685.305 372.081 685.695 371.232 686.531L372.296 687.612ZM374.436 686.831C375.408 686.839 376.054 687.129 376.488 687.617L377.62 686.608C376.836 685.727 375.739 685.325 374.447 685.315L374.436 686.831ZM376.514 687.644C376.996 688.134 377.254 688.775 377.247 689.638L378.764 689.649C378.773 688.442 378.397 687.395 377.594 686.58L376.514 687.644ZM377.247 689.638C377.24 690.54 376.967 691.214 376.469 691.729L377.56 692.784C378.366 691.95 378.754 690.883 378.764 689.649L377.247 689.638ZM376.456 691.743C376.014 692.224 375.364 692.505 374.392 692.497L374.38 694.014C375.672 694.024 376.775 693.638 377.573 692.77L376.456 691.743Z" fill="white"/>
<path d="M106.434 640.277C109.311 643.725 106.725 650.625 102.354 654.273C97.9834 657.921 90.7318 659.231 87.8541 655.783C84.9764 652.335 86.8027 646.069 91.9332 641.787C97.0638 637.505 103.556 636.829 106.434 640.277Z" fill="#FFE588"/>
<defs>
<filter id="filter0_d_0_1" x="41.5859" y="277.534" width="464.92" height="473.995" filterUnits="userSpaceOnUse" color-interpolation-filters="sRGB">
<feFlood flood-opacity="0" result="BackgroundImageFix"/>
<feColorMatrix in="SourceAlpha" type="matrix" values="0 0 0 0 0 0 0 0 0 0 0 0 0 0 0 0 0 0 127 0" result="hardAlpha"/>
<feOffset dy="6.06641"/>
<feComposite in2="hardAlpha" operator="out"/>
<feColorMatrix type="matrix" values="0 0 0 0 1 0 0 0 0 0.787333 0 0 0 0 0.468333 0 0 0 1 0"/>
<feBlend mode="normal" in2="BackgroundImageFix" result="effect1_dropShadow_0_1"/>
<feBlend mode="normal" in="SourceGraphic" in2="effect1_dropShadow_0_1" result="shape"/>
</filter>
<filter id="filter1_d_0_1" x="17.0078" y="206.568" width="117.914" height="138.6" filterUnits="userSpaceOnUse" color-interpolation-filters="sRGB">
<feFlood flood-opacity="0" result="BackgroundImageFix"/>
<feColorMatrix in="SourceAlpha" type="matrix" values="0 0 0 0 0 0 0 0 0 0 0 0 0 0 0 0 0 0 127 0" result="hardAlpha"/>
<feOffset dy="6.06641"/>
<feComposite in2="hardAlpha" operator="out"/>
<feColorMatrix type="matrix" values="0 0 0 0 0.886275 0 0 0 0 0.419608 0 0 0 0 0.117647 0 0 0 1 0"/>
<feBlend mode="normal" in2="BackgroundImageFix" result="effect1_dropShadow_0_1"/>
<feBlend mode="normal" in="SourceGraphic" in2="effect1_dropShadow_0_1" result="shape"/>
</filter>
<filter id="filter2_d_0_1" x="415.711" y="209.199" width="119.156" height="139.473" filterUnits="userSpaceOnUse" color-interpolation-filters="sRGB">
<feFlood flood-opacity="0" result="BackgroundImageFix"/>
<feColorMatrix in="SourceAlpha" type="matrix" values="0 0 0 0 0 0 0 0 0 0 0 0 0 0 0 0 0 0 127 0" result="hardAlpha"/>
<feOffset dy="6.06641"/>
<feComposite in2="hardAlpha" operator="out"/>
<feColorMatrix type="matrix" values="0 0 0 0 0.886275 0 0 0 0 0.419608 0 0 0 0 0.117647 0 0 0 1 0"/>
<feBlend mode="normal" in2="BackgroundImageFix" result="effect1_dropShadow_0_1"/>
<feBlend mode="normal" in="SourceGraphic" in2="effect1_dropShadow_0_1" result="shape"/>
</filter>
<filter id="filter3_d_0_1" x="70.335" y="166.438" width="409.753" height="158.495" filterUnits="userSpaceOnUse" color-interpolation-filters="sRGB">
<feFlood flood-opacity="0" result="BackgroundImageFix"/>
<feColorMatrix in="SourceAlpha" type="matrix" values="0 0 0 0 0 0 0 0 0 0 0 0 0 0 0 0 0 0 127 0" result="hardAlpha"/>
<feOffset dy="6.06641"/>
<feComposite in2="hardAlpha" operator="out"/>
<feColorMatrix type="matrix" values="0 0 0 0 0.886275 0 0 0 0 0.419608 0 0 0 0 0.117647 0 0 0 1 0"/>
<feBlend mode="normal" in2="BackgroundImageFix" result="effect1_dropShadow_0_1"/>
<feBlend mode="normal" in="SourceGraphic" in2="effect1_dropShadow_0_1" result="shape"/>
</filter>
<filter id="filter4_d_0_1" x="65.7402" y="627.747" width="414.102" height="99.6282" filterUnits="userSpaceOnUse" color-interpolation-filters="sRGB">
<feFlood flood-opacity="0" result="BackgroundImageFix"/>
<feColorMatrix in="SourceAlpha" type="matrix" values="0 0 0 0 0 0 0 0 0 0 0 0 0 0 0 0 0 0 127 0" result="hardAlpha"/>
<feOffset dy="6.06641"/>
<feComposite in2="hardAlpha" operator="out"/>
<feColorMatrix type="matrix" values="0 0 0 0 1 0 0 0 0 0.835982 0 0 0 0 0.251667 0 0 0 1 0"/>
<feBlend mode="normal" in2="BackgroundImageFix" result="effect1_dropShadow_0_1"/>
<feBlend mode="normal" in="SourceGraphic" in2="effect1_dropShadow_0_1" result="shape"/>
</filter>
<filter id="filter5_d_0_1" x="71.8418" y="632.299" width="401.942" height="84.4587" filterUnits="userSpaceOnUse" color-interpolation-filters="sRGB">
<feFlood flood-opacity="0" result="BackgroundImageFix"/>
<feColorMatrix in="SourceAlpha" type="matrix" values="0 0 0 0 0 0 0 0 0 0 0 0 0 0 0 0 0 0 127 0" result="hardAlpha"/>
<feOffset dy="6.06641"/>
<feComposite in2="hardAlpha" operator="out"/>
<feColorMatrix type="matrix" values="0 0 0 0 0.929167 0 0 0 0 0.72458 0 0 0 0 0 0 0 0 1 0"/>
<feBlend mode="normal" in2="BackgroundImageFix" result="effect1_dropShadow_0_1"/>
<feBlend mode="normal" in="SourceGraphic" in2="effect1_dropShadow_0_1" result="shape"/>
</filter>
<linearGradient id="paint0_linear_0_1" x1="207.739" y1="9.257" x2="232.485" y2="227.964" gradientUnits="userSpaceOnUse">
<stop stop-color="#FFDF6E" stop-opacity="0"/>
<stop offset="1" stop-color="#FFCD1B" stop-opacity="0.5"/>
</linearGradient>
<linearGradient id="paint1_linear_0_1" x1="347.037" y1="8.39288" x2="321.4" y2="226.998" gradientUnits="userSpaceOnUse">
<stop stop-color="#FFDF6E" stop-opacity="0"/>
<stop offset="1" stop-color="#FFCD1B" stop-opacity="0.5"/>
</linearGradient>
<linearGradient id="paint2_linear_0_1" x1="98.5574" y1="62.1044" x2="152.072" y2="243.286" gradientUnits="userSpaceOnUse">
<stop stop-color="#FFDF6E" stop-opacity="0"/>
<stop offset="1" stop-color="#FFCD1B" stop-opacity="0.5"/>
</linearGradient>
<linearGradient id="paint3_linear_0_1" x1="456.005" y1="61.6846" x2="401.752" y2="242.647" gradientUnits="userSpaceOnUse">
<stop stop-color="#FFDF6E" stop-opacity="0"/>
<stop offset="1" stop-color="#FFCD1B" stop-opacity="0.5"/>
</linearGradient>
<linearGradient id="paint4_linear_0_1" x1="30.6045" y1="146.233" x2="91.8703" y2="266.467" gradientUnits="userSpaceOnUse">
<stop stop-color="#FFDF6E" stop-opacity="0"/>
<stop offset="1" stop-color="#FFCD1B" stop-opacity="0.5"/>
</linearGradient>
<linearGradient id="paint5_linear_0_1" x1="523.612" y1="146.089" x2="461.856" y2="266.072" gradientUnits="userSpaceOnUse">
<stop stop-color="#FFDF6E" stop-opacity="0"/>
<stop offset="1" stop-color="#FFCD1B" stop-opacity="0.5"/>
</linearGradient>
<linearGradient id="paint6_linear_0_1" x1="44.702" y1="144.221" x2="68.7268" y2="274.079" gradientUnits="userSpaceOnUse">
<stop stop-color="#FFCF25"/>
<stop offset="1" stop-color="#FD8C43"/>
</linearGradient>
<linearGradient id="paint7_linear_0_1" x1="508.518" y1="147.792" x2="482.496" y2="277.265" gradientUnits="userSpaceOnUse">
<stop stop-color="#FFCF25"/>
<stop offset="1" stop-color="#FD8C43"/>
</linearGradient>
<linearGradient id="paint8_linear_0_1" x1="276.437" y1="86.097" x2="275.188" y2="248.369" gradientUnits="userSpaceOnUse">
<stop stop-color="#FFCF25"/>
<stop offset="1" stop-color="#FD8C43"/>
</linearGradient>
</defs>
</svg>
